<svg width="276" height="291" viewBox="0 0 276 291" fill="none" xmlns="http://www.w3.org/2000/svg">
    <path fill-rule="evenodd" clip-rule="evenodd" d="M263.861 191.884C263.842 192.993 263.703 193.513 263.772 193.253C263.772 193.253 263.817 192.568 263.861 191.884ZM184.342 243.944C183.481 246.637 182.24 248.671 180.974 250.281C179.942 251.536 178.884 252.366 178.65 252.721C178.65 252.721 177.826 253.196 177.497 253.387C177.003 253.672 176.509 253.957 176.179 254.147C175.52 254.528 174.862 254.908 174.038 255.383C172.556 256.239 170.58 257.38 168.274 258.711C163.827 261.279 158.063 264.607 152.299 267.935C146.535 271.263 140.675 274.426 136.298 276.733C134.157 277.969 132.181 279.11 130.604 279.802C129.945 280.182 129.121 280.657 128.463 281.038C128.133 281.228 127.639 281.513 126.885 281.729C126.556 281.919 125.897 282.299 125.048 282.35C124.719 282.54 123.705 282.686 122.691 282.832C122.007 282.788 119.391 283.201 116.273 282.365C112.896 281.46 110.741 279.629 110.126 279.325C109.321 278.691 108.681 277.963 108.326 277.729C107.686 277 107.141 276.436 106.951 276.107C106.57 275.448 106.095 274.624 105.645 274.225C104.979 273.072 104.218 271.754 103.102 270.202C101.296 267.073 98.563 262.72 95.6149 257.614C90.3773 247.021 82.4838 233.349 74.4952 219.512C66.5065 205.675 58.5179 191.839 52.4754 180.612C49.3371 175.176 46.7438 170.304 44.8162 166.585C43.1044 163.62 41.1768 159.901 40.4345 157.474C26.2968 119.295 39.2869 75.9955 72.1094 52.2136C116.523 19.9824 166.118 32.8586 194.705 63.355C219.381 89.74 229.331 130.556 208.128 167.617C213.368 168.325 218.018 169.154 221.89 169.774C235.912 172.001 243.3 173.007 246.911 173.557C248.115 173.74 249.319 173.924 250.358 174.203C250.878 174.342 253.9 175.013 256.74 176.888C258.774 178.129 261.569 180.688 263.357 184.927C264.619 187.493 266.173 192.086 264.452 197.473C262.965 202.504 259.817 205.419 258.76 206.25C257.468 207.435 256.081 208.456 255.092 209.026C251.729 211.188 245.141 214.991 233.518 221.482C231.541 222.623 229.4 223.859 227.095 225.19C223.307 227.377 219.684 229.469 216.719 231.181C213.261 233.178 210.296 234.889 207.826 236.315C203.544 238.788 198.837 241.285 194.219 242.414C190.779 243.302 187.807 243.48 184.975 243.139L184.342 243.944ZM181.452 225.626C180.058 225.113 178.474 224.271 176.629 223.359C176.629 223.359 175.495 222.916 174.88 222.612C162.378 217.311 161.599 217.102 160.826 218.427C160.288 219.396 160.383 219.561 164.695 228.931C165.672 231.003 166.363 232.581 166.864 233.829C168.031 236.23 168.272 237.409 168.488 238.162C168.608 238.752 168.374 239.107 168.209 239.202C167.177 240.457 122.26 265.73 121.481 265.522C119.662 265.034 58.7455 158.763 56.0246 151.768C44.7029 120.748 55.3454 85.173 81.8911 66.1132C151.697 15.4878 234.945 99.2027 189.576 165.15C189.246 165.34 189.177 165.6 188.942 165.955C186.973 168.629 184.839 171.399 182.445 174.099C180.216 176.703 178.43 178.174 178.741 179.092C179.077 180.436 182.619 181.246 192.25 182.714C193.194 182.827 194.138 182.941 195.177 183.22C195.697 183.359 196.381 183.403 196.901 183.543C199.308 183.909 202.141 184.251 205.328 184.827C213.33 186.136 219.774 187.028 225.109 187.901C227.517 188.268 229.665 188.566 231.553 188.793C246 190.995 247.299 191.343 247.324 191.768C247.324 191.768 247.419 191.932 247.514 192.097C247.705 192.427 247.895 192.756 248.085 193.085C248.231 194.099 246.255 195.24 234.232 202.181C232.585 203.132 230.609 204.273 228.633 205.414C225.833 207.031 222.539 208.932 218.751 211.119C197.012 223.671 191.533 227.493 186.648 227.019C185.279 226.93 183.885 226.417 182.136 225.67L181.452 225.626Z" fill="#f0eeff"/>
    <path fill-rule="evenodd" clip-rule="evenodd" d="M83.3901 157.803L100.581 107.271C101.664 104.085 104.237 101.63 107.47 100.697L157.975 86.1168C158.957 85.8332 159.827 86.8193 159.423 87.7584L151.3 106.65C150.769 107.884 150.968 109.306 151.824 110.342C153.288 112.114 154.903 114.122 155.613 115.804L155.62 115.82C156.571 118.075 158.584 122.846 147.673 137.166C136.736 151.521 124.787 158.069 120.098 159.029C115.409 159.989 113.603 159.283 111.909 158.164C110.72 157.379 107.042 154.073 104.954 152.17C104.049 151.345 102.74 151.139 101.628 151.652L85.0432 159.293C84.077 159.738 83.0475 158.81 83.3901 157.803ZM140.121 143.162C151.607 131.676 157.651 119.097 153.621 115.067C149.591 111.037 137.012 117.081 125.526 128.567C114.041 140.053 107.997 152.631 112.027 156.661C116.057 160.691 128.635 154.647 140.121 143.162Z" fill="#f0eeff"/>
</svg>
