<svg width="99" height="98" viewBox="0 0 99 98" fill="none" xmlns="http://www.w3.org/2000/svg">
    <rect x="0.780029" width="97.44" height="97.4426" rx="48.72" fill="#F8F7FE"/>
    <g clip-path="url(#clip0_3397_69397)">
        <path fill-rule="evenodd" clip-rule="evenodd" d="M68.017 71.0941C67.8934 71.3001 67.811 71.3825 67.8522 71.3413C67.8522 71.3413 67.9346 71.2177 68.017 71.0941ZM47.4608 72.2477C47.0077 72.6598 46.5546 72.907 46.1426 73.0718C45.8131 73.1954 45.5247 73.2366 45.4423 73.2778C45.4423 73.2778 45.2363 73.2778 45.1539 73.2778C45.0304 73.2778 44.9068 73.2778 44.8244 73.2778C44.6596 73.2778 44.4948 73.2778 44.2889 73.2778C43.9181 73.2778 43.4238 73.2778 42.847 73.2778C41.7348 73.2778 40.293 73.2778 38.8512 73.2778C37.4094 73.2778 35.9675 73.2366 34.8965 73.1954C34.361 73.1954 33.8666 73.1954 33.4959 73.1542C33.3311 73.1542 33.1251 73.1542 32.9603 73.1542C32.8779 73.1542 32.7544 73.1542 32.5896 73.113C32.5072 73.113 32.3424 73.113 32.1776 73.0306C32.0952 73.0306 31.8893 72.9482 31.6833 72.8658C31.5597 72.7834 31.0242 72.5774 30.5298 72.0829C29.9943 71.5473 29.7883 70.9705 29.706 70.8469C29.6236 70.6409 29.5824 70.4348 29.5412 70.3524C29.5 70.1464 29.4588 69.9816 29.4588 69.8992C29.4588 69.7344 29.4588 69.5284 29.4176 69.4048C29.4176 69.1164 29.4176 68.7868 29.3764 68.3747C29.3764 67.5919 29.3352 66.4794 29.3352 65.2022C29.5 62.6476 29.5 59.2278 29.5 55.7669C29.5 52.3059 29.5 48.8449 29.5824 46.0844C29.5824 44.7247 29.6236 43.5298 29.6648 42.6234C29.6648 41.8817 29.706 40.9753 29.8295 40.4396C31.3125 31.746 38.4392 25.03 47.1725 24.1236C58.9953 22.8875 66.9047 30.6747 68.9645 39.492C70.7358 47.1144 68.1818 55.8493 60.19 60.5051C61.0963 61.2056 61.879 61.8648 62.5381 62.4004C64.9274 64.3369 66.2044 65.3258 66.8223 65.8202C67.0283 65.985 67.2343 66.1498 67.3991 66.3146C67.4814 66.397 67.9758 66.8503 68.3053 67.5095C68.5525 67.9627 68.7997 68.7456 68.6761 69.7344C68.6349 70.3524 68.4289 71.3825 67.5226 72.2065C66.6987 72.9894 65.7925 73.1954 65.5041 73.2366C65.1334 73.319 64.7626 73.3602 64.5154 73.3602C63.6503 73.4014 62.0026 73.4014 59.1189 73.3602C58.6246 73.3602 58.0891 73.3602 57.5123 73.3602C56.5649 73.3602 55.6586 73.3602 54.9171 73.3602C54.052 73.3602 53.3105 73.3602 52.6926 73.3602C51.6215 73.3602 50.4681 73.319 49.4794 73.0306C48.7379 72.8246 48.1612 72.5362 47.6668 72.1653L47.4608 72.2477ZM48.9027 68.4983C48.6967 68.2511 48.4907 67.9215 48.2435 67.5507C48.2435 67.5507 48.0788 67.3447 47.9964 67.2211C46.225 64.8725 46.1014 64.7489 45.8131 64.9138C45.6071 65.0374 45.6071 65.0786 45.4011 67.3035C45.3599 67.7979 45.3187 68.1687 45.2775 68.4571C45.2363 69.034 45.1539 69.2812 45.1128 69.446C45.0716 69.5696 44.9892 69.6108 44.948 69.6108C44.6184 69.7344 33.4547 69.6108 33.3311 69.4872C33.0427 69.1988 33.1251 42.6646 33.3723 41.0577C34.6081 34.0121 40.4578 28.491 47.502 27.7906C66.0808 25.8541 72.6308 50.5754 56.9768 58.033C56.8944 58.033 56.8532 58.0742 56.7708 58.1154C56.1117 58.4038 55.4114 58.6922 54.6699 58.9394C53.9696 59.1866 53.4753 59.2691 53.4341 59.4751C53.3517 59.7635 53.9284 60.2991 55.5762 61.6176C55.741 61.7412 55.9058 61.8648 56.0705 62.0296C56.1529 62.112 56.2765 62.1944 56.3589 62.2768C56.7708 62.6064 57.2652 62.9772 57.8007 63.4305C59.1601 64.5429 60.2724 65.4082 61.1787 66.1498C61.5906 66.4794 61.9614 66.7678 62.2909 67.0151C64.7626 68.9928 64.9686 69.1988 64.9274 69.2812C64.9274 69.2812 64.9274 69.3224 64.9274 69.3636C64.9274 69.446 64.9274 69.5284 64.9274 69.6108C64.845 69.8168 64.3507 69.8168 61.3434 69.8168C60.9315 69.8168 60.4372 69.8168 59.9428 69.8168C59.2425 69.8168 58.4186 69.8168 57.4711 69.8168C52.0335 69.8168 50.5916 69.9404 49.7266 69.3224C49.4794 69.1576 49.2734 68.9104 49.0262 68.5807L48.9027 68.4983Z" fill="#8840E6"/>
        <path fill-rule="evenodd" clip-rule="evenodd" d="M37.8524 45.1539L46.5505 37.536C47.0988 37.0557 47.8473 36.8739 48.5549 37.0489L59.6086 39.7839C59.8236 39.8371 59.88 40.1163 59.7025 40.2487L56.1325 42.9129C55.8993 43.087 55.7825 43.3753 55.8309 43.6623C55.9137 44.1532 55.9993 44.7049 55.9502 45.0974L55.9497 45.1012C55.884 45.6273 55.7449 46.7403 52.1469 48.2449C48.5404 49.7531 45.5895 49.6876 44.6059 49.3597C43.6223 49.0318 43.36 48.704 43.1633 48.3105C43.0253 48.0344 42.6935 47.0158 42.5079 46.4326C42.4274 46.1799 42.2042 45.9996 41.9402 45.9752L38.0011 45.6124C37.7717 45.5913 37.679 45.3058 37.8524 45.1539ZM50.0809 48.5517C53.4797 47.641 55.9759 45.9359 55.6563 44.7434C55.3368 43.5508 52.3225 43.3223 48.9237 44.2329C45.5249 45.1436 43.0287 46.8487 43.3483 48.0413C43.6678 49.2339 46.6821 49.4624 50.0809 48.5517Z" fill="#8840E6"/>
    </g>
    <defs>
        <clipPath id="clip0_3397_69397">
            <rect width="40" height="49.4426" fill="white" transform="translate(29.5 24)"/>
        </clipPath>
    </defs>
</svg>
