<svg width="110" height="111" viewBox="0 0 110 111" fill="none" xmlns="http://www.w3.org/2000/svg">
    <path d="M6.11111 37.6689C7.59926 37.6689 9.02646 38.2601 10.0788 39.3125C11.131 40.3649 11.7222 41.7922 11.7222 43.2804V67.7264C11.7222 69.2147 11.131 70.642 10.0788 71.6943C9.02646 72.7467 7.59926 73.3379 6.11111 73.3379C4.62296 73.3379 3.19576 72.7467 2.14347 71.6943C1.09118 70.642 0.5 69.2147 0.5 67.7264V43.2804C0.5 41.7922 1.09118 40.3649 2.14347 39.3125C3.19576 38.2601 4.62296 37.6689 6.11111 37.6689ZM103.889 37.6689C105.263 37.6691 106.59 38.1737 107.617 39.087C108.64 39.9972 109.295 41.2503 109.459 42.6099L109.5 43.2954V67.7258C109.498 69.1561 108.951 70.5318 107.969 71.5718C106.987 72.6118 105.645 73.2376 104.218 73.3214C102.79 73.4053 101.384 72.9407 100.288 72.0228C99.1945 71.1079 98.4907 69.8114 98.3188 68.3967L98.2778 67.7114V43.2804C98.2778 41.7922 98.869 40.3649 99.9212 39.3125C100.974 38.2601 102.401 37.6689 103.889 37.6689Z" fill="#8237FD" fill-opacity="0.25" stroke="black"/>
    <path d="M79.4441 19.3345C80.9323 19.3345 82.3595 19.9257 83.4118 20.978C84.4641 22.0304 85.0552 23.4577 85.0552 24.946V86.0608C85.0552 87.5491 84.4641 88.9764 83.4118 90.0288C82.3595 91.0811 80.9323 91.6723 79.4441 91.6723C77.956 91.6723 76.5288 91.0811 75.4765 90.0288C74.4242 88.9764 73.833 87.5491 73.833 86.0608V24.946C73.833 23.4577 74.4242 22.0304 75.4765 20.978C76.5288 19.9257 77.956 19.3345 79.4441 19.3345Z" fill="#8237FD" fill-opacity="0.5" stroke="black"/>
    <path d="M30.5554 19.3345C32.0436 19.3345 33.4708 19.9257 34.5231 20.978C35.5754 22.0304 36.1666 23.4577 36.1666 24.946V86.0608C36.1666 87.5491 35.5754 88.9764 34.5231 90.0288C33.4708 91.0811 32.0436 91.6723 30.5554 91.6723C29.0673 91.6723 27.6401 91.0811 26.5878 90.0288C25.5355 88.9764 24.9443 87.5491 24.9443 86.0608V24.946C24.9443 23.4577 25.5355 22.0304 26.5878 20.978C27.6401 19.9257 29.0673 19.3345 30.5554 19.3345Z" fill="#8237FD" fill-opacity="0.5" stroke="black"/>
    <path d="M59.0598 2.04447C57.9413 1.04977 56.4966 0.500197 54.9998 0.5C53.379 0.5 51.8246 1.14389 50.6786 2.29001C49.5325 3.43614 48.8887 4.99062 48.8887 6.61149V104.395L48.9315 105.11C49.1154 106.657 49.883 108.075 51.0775 109.075C52.2719 110.075 53.803 110.581 55.3579 110.489C56.9128 110.398 58.3742 109.717 59.4435 108.584C60.5127 107.451 61.1092 105.953 61.1109 104.395V6.61149L61.0681 5.89644C60.893 4.40982 60.1784 3.03917 59.0598 2.04447Z" fill="#8237FD" fill-opacity="0.75"/>
</svg>
