<svg width="110" height="111" viewBox="0 0 110 111" fill="none" xmlns="http://www.w3.org/2000/svg">
    <g clip-path="url(#clip0_8749_8405)">
        <path d="M105.54 70.3649V91.5176C105.54 92.8278 105.021 94.0846 104.096 95.0125C103.17 95.9404 101.915 96.4636 100.605 96.4676H9.39412C8.08388 96.4636 6.82864 95.9404 5.90355 95.0125C4.97845 94.0846 4.45898 92.8278 4.45898 91.5176V70.3649H105.54Z" fill="#8237FD"/>
        <path d="M105.54 70.3649V91.5176C105.54 92.8278 105.021 94.0846 104.096 95.0125C103.17 95.9404 101.915 96.4636 100.605 96.4676H94.332C95.6423 96.4636 96.8975 95.9404 97.8226 95.0125C98.7477 94.0846 99.2672 92.8278 99.2672 91.5176V70.3649H105.54Z" fill="#4B286D"/>
        <path d="M105.54 15.7662V70.3649H4.45898V15.7662C4.45898 14.456 4.97845 13.1992 5.90355 12.2713C6.82864 11.3434 8.08388 10.8202 9.39412 10.8162H100.605C101.915 10.8202 103.17 11.3434 104.096 12.2713C105.021 13.1992 105.54 14.456 105.54 15.7662V15.7662Z" fill="#EEEFEE"/>
        <path d="M105.54 15.7662V70.3649H99.2671V21.8905C99.2671 20.5817 98.7471 19.3264 97.8216 18.4009C96.8961 17.4754 95.6408 16.9554 94.332 16.9554H4.45898V15.7662C4.45898 14.456 4.97845 13.1992 5.90355 12.2713C6.82864 11.3434 8.08388 10.8202 9.39412 10.8162H100.605C101.915 10.8202 103.17 11.3434 104.096 12.2713C105.021 13.1992 105.54 14.456 105.54 15.7662Z" fill="#E1E6E9"/>
        <path fill-rule="evenodd" clip-rule="evenodd" d="M11.9659 84.1297H19.5916C19.7887 84.1297 19.9777 84.0514 20.1171 83.912C20.2565 83.7726 20.3348 83.5836 20.3348 83.3865C20.3348 83.1893 20.2565 83.0003 20.1171 82.8609C19.9777 82.7215 19.7887 82.6432 19.5916 82.6432H11.9659C11.7688 82.6432 11.5797 82.7215 11.4403 82.8609C11.301 83.0003 11.2227 83.1893 11.2227 83.3865C11.2227 83.5836 11.301 83.7726 11.4403 83.912C11.5797 84.0514 11.7688 84.1297 11.9659 84.1297ZM25.6861 84.1297H98.1077C98.3049 84.1297 98.4939 84.0514 98.6333 83.912C98.7727 83.7726 98.851 83.5836 98.851 83.3865C98.851 83.1893 98.7727 83.0003 98.6333 82.8609C98.4939 82.7215 98.3049 82.6432 98.1077 82.6432H25.6861C25.489 82.6432 25.2999 82.7215 25.1606 82.8609C25.0212 83.0003 24.9429 83.1893 24.9429 83.3865C24.9429 83.5836 25.0212 83.7726 25.1606 83.912C25.2999 84.0514 25.489 84.1297 25.6861 84.1297Z" fill="#4B286D"/>
        <path d="M22.922 78.1689H22.3422C21.0287 78.1689 19.9639 79.2337 19.9639 80.5473V86.2405C19.9639 87.5541 21.0287 88.6189 22.3422 88.6189H22.922C24.2355 88.6189 25.3004 87.5541 25.3004 86.2405V80.5473C25.3004 79.2337 24.2355 78.1689 22.922 78.1689Z" fill="#00C56D"/>
        <path d="M22.9219 89.3621H22.2976C21.4683 89.3622 20.6728 89.0337 20.085 88.4488C19.4972 87.8638 19.1651 87.0698 19.1611 86.2405V80.5473C19.1651 79.718 19.4972 78.924 20.085 78.3391C20.6728 77.7541 21.4683 77.4256 22.2976 77.4257H22.8625C23.2724 77.4257 23.6783 77.5064 24.0571 77.6633C24.4358 77.8202 24.7799 78.0501 25.0698 78.34C25.3597 78.6298 25.5896 78.974 25.7465 79.3527C25.9034 79.7314 25.9841 80.1373 25.9841 80.5473V86.2405C25.9843 87.0582 25.6635 87.8433 25.0909 88.4271C24.5183 89.0108 23.7395 89.3466 22.9219 89.3621V89.3621ZM22.3571 78.9567C21.922 78.9567 21.5046 79.1285 21.1956 79.4347C20.8866 79.741 20.711 80.1569 20.7071 80.5919V86.2851C20.7219 86.7022 20.8942 87.0983 21.1893 87.3934C21.4845 87.6886 21.8805 87.8609 22.2976 87.8757H22.8625C23.2961 87.8757 23.7121 87.7034 24.0187 87.3967C24.3253 87.0901 24.4976 86.6742 24.4976 86.2405V80.5473C24.4976 80.1136 24.3253 79.6977 24.0187 79.3911C23.7121 79.0844 23.2961 78.9121 22.8625 78.9121L22.3571 78.9567Z" fill="#4B286D"/>
        <path d="M54.0781 60.2122C64.488 60.2122 72.9268 51.7733 72.9268 41.3635C72.9268 30.9537 64.488 22.5149 54.0781 22.5149C43.6683 22.5149 35.2295 30.9537 35.2295 41.3635C35.2295 51.7733 43.6683 60.2122 54.0781 60.2122Z" fill="#4B286D"/>
        <path d="M72.9268 41.3635C72.939 44.2255 72.2971 47.0525 71.0502 49.6287C69.8033 52.2049 67.9844 54.4622 65.7322 56.2284C68.4546 52.534 69.7356 47.9733 69.335 43.4017C68.9345 38.8301 66.8798 34.5617 63.5565 31.397C60.2331 28.2324 55.8693 26.3888 51.2836 26.2123C46.6979 26.0357 42.2053 27.5381 38.6484 30.4378C40.9677 27.1891 44.2584 24.7606 48.0465 23.5021C51.8345 22.2436 55.9243 22.2203 59.7265 23.4353C63.5287 24.6504 66.847 27.0411 69.2033 30.2631C71.5596 33.4851 72.8321 37.3719 72.8376 41.3635H72.9268Z" fill="#4B286D"/>
        <path d="M53.0886 35.6633C51.0927 34.6462 48.7266 36.0961 48.7266 38.3363V44.3908C48.7266 46.6309 51.0927 48.0808 53.0886 47.0638L59.0295 44.0365C61.2135 42.9237 61.2135 39.8034 59.0295 38.6905L53.0886 35.6633Z" fill="url(#paint0_linear_8749_8405)"/>
        <path d="M48.7267 50.0297C48.5915 50.0253 48.4593 49.9897 48.3402 49.9257C48.2316 49.8579 48.1419 49.7637 48.0795 49.652C48.0171 49.5402 47.9841 49.4145 47.9834 49.2865V33.4405C47.9827 33.3123 48.0151 33.186 48.0776 33.074C48.1402 32.962 48.2306 32.868 48.3402 32.8013C48.4514 32.7388 48.5768 32.706 48.7044 32.706C48.8319 32.706 48.9573 32.7388 49.0685 32.8013L64.6172 40.6351C64.7395 40.6985 64.8418 40.7946 64.9127 40.9127C64.9836 41.0308 65.0202 41.1663 65.0186 41.304C65.0209 41.44 64.9844 41.5737 64.9133 41.6896C64.8422 41.8055 64.7395 41.8986 64.6172 41.9581L49.0537 49.9554C48.9505 50.001 48.8394 50.0262 48.7267 50.0297V50.0297ZM49.4699 34.6892V48.0676L62.6402 41.3635L49.4699 34.6892Z" fill="#4B286D"/>
        <path d="M100.605 97.2108H9.3942C7.88683 97.2069 6.44255 96.6053 5.37807 95.538C4.3136 94.4708 3.71582 93.0249 3.71582 91.5176V70.3649C3.71582 70.1677 3.79413 69.9787 3.93351 69.8393C4.0729 69.6999 4.26194 69.6216 4.45906 69.6216H105.54C105.737 69.6216 105.926 69.6999 106.066 69.8393C106.205 69.9787 106.283 70.1677 106.283 70.3649V91.5176C106.283 93.0249 105.686 94.4708 104.621 95.538C103.557 96.6053 102.112 97.2069 100.605 97.2108V97.2108ZM5.20231 71.0635V91.5176C5.2023 92.6307 5.64347 93.6984 6.42918 94.4869C7.21489 95.2754 8.28108 95.7204 9.3942 95.7243H100.605C101.718 95.7204 102.784 95.2754 103.57 94.4869C104.356 93.6984 104.797 92.6307 104.797 91.5176V71.0635H5.20231Z" fill="#4B286D"/>
        <path d="M105.54 71.0635H4.45906C4.26194 71.0635 4.0729 70.9852 3.93351 70.8458C3.79413 70.7064 3.71582 70.5174 3.71582 70.3203V15.7662C3.71582 14.2588 4.3136 12.813 5.37807 11.7457C6.44255 10.6785 7.88683 10.0769 9.3942 10.073H100.605C102.112 10.0769 103.557 10.6785 104.621 11.7457C105.686 12.813 106.283 14.2588 106.283 15.7662V70.3649C106.272 70.5542 106.189 70.7319 106.051 70.8618C105.912 70.9917 105.73 71.0639 105.54 71.0635V71.0635ZM5.20231 69.577H104.797V15.7662C104.797 14.6531 104.356 13.5853 103.57 12.7968C102.784 12.0083 101.718 11.5634 100.605 11.5595H9.3942C8.28108 11.5634 7.21489 12.0083 6.42918 12.7968C5.64347 13.5853 5.2023 14.6531 5.20231 15.7662V69.577Z" fill="#4B286D"/>
        <path d="M54.0782 60.9554C50.2033 60.9554 46.4154 59.8064 43.1936 57.6536C39.9717 55.5008 37.4605 52.441 35.9777 48.861C34.4948 45.2811 34.1068 41.3418 34.8628 37.5413C35.6187 33.7409 37.4847 30.2499 40.2247 27.5099C42.9646 24.77 46.4556 22.904 50.256 22.1481C54.0565 21.3921 57.9958 21.7801 61.5757 23.263C65.1557 24.7458 68.2155 27.257 70.3683 30.4788C72.5211 33.7007 73.6701 37.4886 73.6701 41.3635C73.6623 46.5572 71.5956 51.5359 67.9231 55.2084C64.2506 58.8809 59.2719 60.9475 54.0782 60.9554V60.9554ZM54.0782 23.2581C50.4973 23.2581 46.9968 24.32 44.0194 26.3094C41.042 28.2989 38.7214 31.1265 37.351 34.4349C35.9807 37.7432 35.6221 41.3836 36.3207 44.8957C37.0193 48.4078 38.7437 51.6339 41.2758 54.166C43.8079 56.6981 47.0339 58.4224 50.546 59.121C54.0581 59.8196 57.6985 59.4611 61.0069 58.0907C64.3152 56.7204 67.1429 54.3997 69.1323 51.4223C71.1218 48.4449 72.1836 44.9444 72.1836 41.3635C72.1758 36.5641 70.2657 31.9635 66.872 28.5697C63.4783 25.176 58.8777 23.266 54.0782 23.2581V23.2581Z" fill="#4B286D"/>
        <path d="M80.7008 101.67H79.5264C79.3293 101.67 79.1403 101.592 79.0009 101.453C78.8615 101.313 78.7832 101.124 78.7832 100.927C78.7832 100.73 78.8615 100.541 79.0009 100.401C79.1403 100.262 79.3293 100.184 79.5264 100.184H80.7008C80.8979 100.184 81.0869 100.262 81.2263 100.401C81.3657 100.541 81.444 100.73 81.444 100.927C81.444 101.124 81.3657 101.313 81.2263 101.453C81.0869 101.592 80.8979 101.67 80.7008 101.67Z" fill="#4B286D"/>
        <path d="M76.1228 101.67H63.6661C63.469 101.67 63.2799 101.592 63.1405 101.453C63.0012 101.313 62.9229 101.124 62.9229 100.927C62.9229 100.73 63.0012 100.541 63.1405 100.401C63.2799 100.262 63.469 100.184 63.6661 100.184H76.1228C76.32 100.184 76.509 100.262 76.6484 100.401C76.7878 100.541 76.8661 100.73 76.8661 100.927C76.8661 101.124 76.7878 101.313 76.6484 101.453C76.509 101.592 76.32 101.67 76.1228 101.67Z" fill="#4B286D"/>
        <path d="M93.2766 7.09998H91.7901C91.593 7.09998 91.404 7.02168 91.2646 6.88229C91.1252 6.74291 91.0469 6.55386 91.0469 6.35674C91.0469 6.15962 91.1252 5.97057 91.2646 5.83119C91.404 5.6918 91.593 5.61349 91.7901 5.61349H93.2766C93.4737 5.61349 93.6628 5.6918 93.8022 5.83119C93.9415 5.97057 94.0199 6.15962 94.0199 6.35674C94.0199 6.55386 93.9415 6.74291 93.8022 6.88229C93.6628 7.02168 93.4737 7.09998 93.2766 7.09998Z" fill="#4B286D"/>
        <path d="M109.435 13.3135C109.282 13.3156 109.132 13.2694 109.006 13.1813C108.881 13.0932 108.787 12.9678 108.736 12.823C108.131 11.151 107.026 9.70557 105.571 8.68202C104.117 7.65847 102.384 7.10623 100.605 7.09998H96.9932C96.7961 7.09998 96.6071 7.02168 96.4677 6.88229C96.3283 6.74291 96.25 6.55386 96.25 6.35674C96.25 6.15962 96.3283 5.97057 96.4677 5.83119C96.6071 5.6918 96.7961 5.61349 96.9932 5.61349H100.605C102.698 5.62538 104.736 6.28275 106.442 7.49587C108.147 8.709 109.436 10.4188 110.134 12.3919C110.197 12.5773 110.185 12.78 110.102 12.9573C110.019 13.1347 109.871 13.273 109.688 13.3432C109.603 13.3479 109.517 13.3379 109.435 13.3135V13.3135Z" fill="#4B286D"/>
        <path d="M16.3511 74.2149C16.3531 74.0621 16.3245 73.9104 16.2669 73.7688C16.2094 73.6272 16.124 73.4986 16.016 73.3906C15.9079 73.2825 15.7793 73.1972 15.6377 73.1396C15.4961 73.082 15.3445 73.0534 15.1916 73.0554H14.4781C14.3266 73.0515 14.1758 73.0777 14.0344 73.1325C13.8931 73.1873 13.764 73.2697 13.6548 73.3748C13.5455 73.4799 13.4582 73.6056 13.398 73.7447C13.3377 73.8839 13.3057 74.0336 13.3038 74.1851C13.3018 74.3394 13.3303 74.4924 13.3875 74.6357C13.4447 74.7789 13.5296 74.9095 13.6372 75.0199C13.7449 75.1303 13.8733 75.2185 14.015 75.2793C14.1567 75.3401 14.309 75.3724 14.4633 75.3743H15.1916C15.4992 75.3743 15.7941 75.2522 16.0115 75.0347C16.2289 74.8173 16.3511 74.5224 16.3511 74.2149Z" fill="#F9D51B"/>
        <path d="M18.418 74.2297C18.4217 74.5375 18.5446 74.8318 18.7608 75.0507C18.9771 75.2697 19.2698 75.3964 19.5774 75.4041H34.8882C35.2026 75.3819 35.4973 75.243 35.7146 75.0148C35.9318 74.7865 36.0559 74.4853 36.0626 74.1703C36.0587 74.0226 36.0256 73.8771 35.965 73.7423C35.9045 73.6075 35.8178 73.4861 35.7099 73.3851C35.602 73.2841 35.4751 73.2056 35.3366 73.1541C35.1981 73.1026 35.0507 73.0792 34.9031 73.0851H19.5923C19.4395 73.0812 19.2875 73.1078 19.1451 73.1636C19.0028 73.2193 18.8731 73.303 18.7637 73.4097C18.6542 73.5164 18.5672 73.6439 18.5078 73.7847C18.4485 73.9256 18.4179 74.0769 18.418 74.2297V74.2297Z" fill="#F9D51B"/>
    </g>
    <defs>
        <linearGradient id="paint0_linear_8749_8405" x1="56.5009" y1="39.369" x2="56.5009" y2="50.4832" gradientUnits="userSpaceOnUse">
            <stop stop-color="#F9D51B"/>
            <stop offset="1" stop-color="#EDA606"/>
        </linearGradient>
        <clipPath id="clip0_8749_8405">
            <rect width="110" height="110" fill="white" transform="translate(0 0.5)"/>
        </clipPath>
    </defs>
</svg>
