<svg width="112" height="112" viewBox="0 0 112 112" fill="none" xmlns="http://www.w3.org/2000/svg">
    <path d="M58.9272 6.77905C60.2192 6.77925 61.4663 7.33319 62.4318 8.33579C63.3973 9.3384 64.0141 10.7199 64.1653 12.2184L64.2022 12.9391V19.0992H72.1147C82.4945 19.1023 92.4575 23.869 99.8554 32.3715C107.253 40.874 111.494 52.4312 111.662 64.551C111.83 76.6709 107.913 88.3824 100.754 97.1604C93.5963 105.938 83.7708 111.08 73.3965 111.475L72.1147 111.5H45.7398C35.36 111.497 25.3969 106.73 17.999 98.2277C10.6011 89.7252 6.36088 78.168 6.1927 66.0481C6.02452 53.9283 9.94184 42.2168 17.1 33.4388C24.2581 24.6608 34.0837 19.5196 44.458 19.1238L45.7398 19.0992H53.6523V12.9391C53.6523 11.3054 54.208 9.73853 55.1973 8.58329C56.1865 7.42806 57.5282 6.77905 58.9272 6.77905V6.77905ZM77.3897 49.8994C75.9906 49.8994 74.6489 50.5485 73.6597 51.7037C72.6704 52.8589 72.1147 54.4258 72.1147 56.0595V59.1395H69.4772C68.0782 59.1395 66.7365 59.7885 65.7472 60.9438C64.758 62.099 64.2022 63.6658 64.2022 65.2996C64.2022 66.9333 64.758 68.5002 65.7472 69.6554C66.7365 70.8106 68.0782 71.4596 69.4772 71.4596H72.1147V74.5397C72.1147 76.1734 72.6704 77.7403 73.6597 78.8955C74.6489 80.0507 75.9906 80.6997 77.3897 80.6997C78.7887 80.6997 80.1304 80.0507 81.1196 78.8955C82.1089 77.7403 82.6646 76.1734 82.6646 74.5397V71.4596H85.3021C86.7011 71.4596 88.0429 70.8106 89.0321 69.6554C90.0214 68.5002 90.5771 66.9333 90.5771 65.2996C90.5771 63.6658 90.0214 62.099 89.0321 60.9438C88.0429 59.7885 86.7011 59.1395 85.3021 59.1395H82.6646V56.0595C82.6646 54.4258 82.1089 52.8589 81.1196 51.7037C80.1304 50.5485 78.7887 49.8994 77.3897 49.8994ZM40.4648 49.8994C36.9673 49.8994 33.613 51.522 31.1399 54.41C28.6667 57.2981 27.2774 61.2152 27.2774 65.2996C27.2774 69.384 28.6667 73.301 31.1399 76.1891C33.613 79.0772 36.9673 80.6997 40.4648 80.6997C43.9623 80.6997 47.3166 79.0772 49.7897 76.1891C52.2629 73.301 53.6523 69.384 53.6523 65.2996C53.6523 61.2152 52.2629 57.2981 49.7897 54.41C47.3166 51.522 43.9623 49.8994 40.4648 49.8994ZM40.4648 62.2196C41.1643 62.2196 41.8352 62.5441 42.3298 63.1217C42.8244 63.6993 43.1023 64.4827 43.1023 65.2996C43.1023 66.1165 42.8244 66.8999 42.3298 67.4775C41.8352 68.0551 41.1643 68.3796 40.4648 68.3796C39.7653 68.3796 39.0944 68.0551 38.5998 67.4775C38.1052 66.8999 37.8273 66.1165 37.8273 65.2996C37.8273 64.4827 38.1052 63.6993 38.5998 63.1217C39.0944 62.5441 39.7653 62.2196 40.4648 62.2196Z" fill="black"/>
    <path d="M60.1441 6.91375L60.1435 6.90142L60.1422 6.88914C59.9808 5.28898 59.3212 3.80001 58.2714 2.70991C57.2198 1.61786 55.8459 1.00022 54.4068 1L54.4067 1.4878V1C52.8479 1 51.3718 1.72379 50.297 2.97902C49.2241 4.23186 48.6317 5.9166 48.6317 7.66006V13.3201H41.2193V13.32L41.2097 13.3202L39.9278 13.3448V13.3448L39.9184 13.3451C29.3866 13.7469 19.4316 18.9659 12.192 27.8437C4.95414 36.7194 1.00256 48.5476 1.17224 60.776C1.34192 73.0045 5.61965 84.6781 13.1013 93.2768C20.585 101.878 30.6812 106.718 41.2191 106.721H41.2193L67.5942 106.721L67.6038 106.721L68.8856 106.696L68.8856 106.696L68.8951 106.696C79.4269 106.294 89.3818 101.075 96.6214 92.1973C103.859 83.3216 107.811 71.4935 107.641 59.265C107.472 47.0366 103.194 35.363 95.7121 26.7642C88.2285 18.1632 78.1322 13.3232 67.5943 13.3201H67.5942H60.1817V7.66006V7.64726L60.181 7.63447L60.1441 6.91375ZM67.5942 54.3605H68.0942V53.8605V50.7804C68.0942 49.2564 68.6133 47.8075 69.519 46.7498C70.4226 45.6946 71.63 45.1204 72.8691 45.1204C74.1083 45.1204 75.3157 45.6946 76.2193 46.7498C77.125 47.8075 77.6441 49.2564 77.6441 50.7804V53.8605V54.3605H78.1441H80.7816C82.0208 54.3605 83.2282 54.9347 84.1318 55.9899C85.0375 57.0476 85.5566 58.4965 85.5566 60.0205C85.5566 61.5446 85.0375 62.9935 84.1318 64.0511C83.2282 65.1064 82.0208 65.6806 80.7816 65.6806H78.1441H77.6441V66.1806V69.2606C77.6441 70.7847 77.125 72.2336 76.2193 73.2912C75.3157 74.3465 74.1083 74.9207 72.8691 74.9207C71.63 74.9207 70.4226 74.3465 69.519 73.2912C68.6133 72.2336 68.0942 70.7847 68.0942 69.2606V66.1806V65.6806H67.5942H64.9567C63.7175 65.6806 62.5101 65.1064 61.6065 64.0511C60.7008 62.9935 60.1817 61.5446 60.1817 60.0205C60.1817 58.4965 60.7008 57.0476 61.6065 55.9899C62.5101 54.9347 63.7175 54.3605 64.9567 54.3605H67.5942ZM26.9991 49.4562C29.3866 46.6681 32.6066 45.1204 35.9443 45.1204C39.282 45.1204 42.5019 46.6681 44.8894 49.4562C47.279 52.2467 48.6317 56.0459 48.6317 60.0205C48.6317 63.9952 47.279 67.7944 44.8894 70.5849C42.5019 73.3729 39.282 74.9207 35.9443 74.9207C32.6066 74.9207 29.3866 73.3729 26.9991 70.5849C24.6096 67.7944 23.2568 63.9952 23.2568 60.0205C23.2568 56.0459 24.6096 52.2467 26.9991 49.4562ZM38.1891 57.5174C37.6088 56.8398 36.8036 56.4405 35.9443 56.4405C35.0849 56.4405 34.2798 56.8398 33.6995 57.5174C33.1213 58.1926 32.8068 59.094 32.8068 60.0205C32.8068 60.9471 33.1213 61.8484 33.6995 62.5237C34.2798 63.2013 35.0849 63.6006 35.9443 63.6006C36.8036 63.6006 37.6088 63.2013 38.1891 62.5237C38.7673 61.8484 39.0818 60.9471 39.0818 60.0205C39.0818 59.094 38.7673 58.1926 38.1891 57.5174Z" fill="#F9D51B" stroke="black"/>
</svg>
