<svg width="110" height="111" viewBox="0 0 110 111" fill="none" xmlns="http://www.w3.org/2000/svg">
    <g clip-path="url(#clip0_8749_23714)">
        <path d="M100.13 79.804H30.4878C28.2367 79.804 26.0778 80.6983 24.486 82.2901C22.8943 83.8819 22 86.0408 22 88.2919V97.5527C22 99.8038 22.8943 101.963 24.486 103.555C25.2742 104.343 26.2099 104.968 27.2397 105.394C28.2695 105.821 29.3732 106.041 30.4878 106.041H100.13C94.2135 97.3 94.2135 88.5545 100.13 79.804Z" fill="#27CCBC"/>
        <path d="M88.0447 86.9095H51.7149C51.5178 86.9095 51.3288 86.8312 51.1894 86.6918C51.05 86.5524 50.9717 86.3633 50.9717 86.1662C50.9717 85.9691 51.05 85.78 51.1894 85.6407C51.3288 85.5013 51.5178 85.423 51.7149 85.423H88.0447C88.2406 85.4268 88.4274 85.5063 88.566 85.6449C88.7046 85.7834 88.7841 85.9703 88.7879 86.1662C88.7879 86.3633 88.7096 86.5524 88.5702 86.6918C88.4308 86.8312 88.2418 86.9095 88.0447 86.9095Z" fill="#323C6B"/>
        <path d="M88.0447 93.6729H51.7149C51.5178 93.6729 51.3288 93.5946 51.1894 93.4553C51.05 93.3159 50.9717 93.1268 50.9717 92.9297C50.9717 92.7326 51.05 92.5435 51.1894 92.4042C51.3288 92.2648 51.5178 92.1865 51.7149 92.1865H88.0447C88.2418 92.1865 88.4308 92.2648 88.5702 92.4042C88.7096 92.5435 88.7879 92.7326 88.7879 92.9297C88.7841 93.1256 88.7046 93.3125 88.566 93.451C88.4274 93.5896 88.2406 93.6691 88.0447 93.6729Z" fill="#323C6B"/>
        <path d="M88.0447 100.422H51.7149C51.5178 100.422 51.3288 100.343 51.1894 100.204C51.05 100.065 50.9717 99.8755 50.9717 99.6784C50.9717 99.4813 51.05 99.2922 51.1894 99.1528C51.3288 99.0135 51.5178 98.9352 51.7149 98.9352H88.0447C88.2418 98.9352 88.4308 99.0135 88.5702 99.1528C88.7096 99.2922 88.7879 99.4813 88.7879 99.6784C88.7841 99.8743 88.7046 100.061 88.566 100.2C88.4274 100.338 88.2406 100.418 88.0447 100.422Z" fill="#323C6B"/>
        <path d="M87.9998 53.5676H18.358C16.1068 53.5676 13.9479 54.4618 12.3561 56.0536C10.7644 57.6454 9.87012 59.8043 9.87012 62.0554V71.3162C9.87012 73.5673 10.7644 75.7262 12.3561 77.318C13.9479 78.9098 16.1068 79.8041 18.358 79.8041H87.9998C82.0836 71.0635 82.0836 62.318 87.9998 53.5676Z" fill="#F9D51B"/>
        <path d="M87.9994 53.5676H32.7021V57.4473H81.7562C76.717 64.8797 78.3967 72.3122 82.6778 79.7446H87.9994C82.0832 71.0437 82.0832 62.318 87.9994 53.5676Z" fill="#F7BE56"/>
        <path d="M26.7567 53.5676H18.358C16.9309 53.5689 15.5273 53.9307 14.2773 54.6193C13.0274 55.308 11.9716 56.3011 11.208 57.5068C11.5098 57.4841 11.8129 57.4841 12.1148 57.5068H26.7567V53.5676Z" fill="#F7BE56"/>
        <path d="M38.6487 79.804H30.4879C29.0608 79.8054 27.6572 80.1672 26.4072 80.8558C25.1573 81.5444 24.1015 82.5376 23.3379 83.7432C23.6397 83.7206 23.9428 83.7206 24.2446 83.7432H38.6487V79.804Z" fill="#21B3A9"/>
        <path d="M100.13 79.804H44.9072V83.7432H93.887C88.8478 91.1757 90.5275 98.6081 94.8086 106.041H100.13C94.214 97.3 94.214 88.5545 100.13 79.804Z" fill="#21B3A9"/>
        <path d="M33.2083 53.5676H27.6191C24.4004 62.0169 24.4004 71.3547 27.6191 79.8041H33.2083C30.1315 71.3292 30.1315 62.0424 33.2083 53.5676Z" fill="#EEEFEE"/>
        <path d="M75.9001 60.673H39.5704C39.3733 60.673 39.1842 60.5947 39.0448 60.4553C38.9055 60.3159 38.8271 60.1269 38.8271 59.9297C38.831 59.7338 38.9105 59.547 39.049 59.4084C39.1876 59.2698 39.3745 59.1903 39.5704 59.1865H75.9001C76.0972 59.1865 76.2863 59.2648 76.4257 59.4042C76.5651 59.5436 76.6434 59.7326 76.6434 59.9297C76.6434 60.1269 76.5651 60.3159 76.4257 60.4553C76.2863 60.5947 76.0972 60.673 75.9001 60.673Z" fill="#323C6B"/>
        <path d="M75.9001 67.3919H39.5704C39.3745 67.3881 39.1876 67.3085 39.049 67.17C38.9105 67.0314 38.831 66.8446 38.8271 66.6486C38.8271 66.4515 38.9055 66.2625 39.0448 66.1231C39.1842 65.9837 39.3733 65.9054 39.5704 65.9054H75.9001C76.0972 65.9054 76.2863 65.9837 76.4257 66.1231C76.5651 66.2625 76.6434 66.4515 76.6434 66.6486C76.6434 66.8458 76.5651 67.0348 76.4257 67.1742C76.2863 67.3136 76.0972 67.3919 75.9001 67.3919Z" fill="#323C6B"/>
        <path d="M75.9001 74.1851H39.5704C39.3733 74.1851 39.1842 74.1068 39.0448 73.9674C38.9055 73.828 38.8271 73.639 38.8271 73.4418C38.8271 73.2447 38.9055 73.0557 39.0448 72.9163C39.1842 72.7769 39.3733 72.6986 39.5704 72.6986H75.9001C76.0972 72.6986 76.2863 72.7769 76.4257 72.9163C76.5651 73.0557 76.6434 73.2447 76.6434 73.4418C76.6434 73.639 76.5651 73.828 76.4257 73.9674C76.2863 74.1068 76.0972 74.1851 75.9001 74.1851Z" fill="#323C6B"/>
        <path d="M47.6719 14.2649C49.753 7.07028 53.3503 4.95947 53.3503 4.95947L58.8057 6.99596C56.9405 7.43565 55.2071 8.31363 53.7491 9.55708C52.2911 10.8005 51.1505 12.3736 50.4219 14.146" fill="#E7AA6C"/>
        <path d="M47.6867 15.0081C47.6182 15.0235 47.5471 15.0235 47.4786 15.0081C47.3835 14.9824 47.2946 14.938 47.2168 14.8775C47.1391 14.8171 47.0741 14.7418 47.0257 14.6561C46.9773 14.5703 46.9464 14.4758 46.9348 14.3781C46.9233 14.2803 46.9312 14.1812 46.9583 14.0865C49.0988 6.65405 52.8151 4.43918 52.9786 4.34999C53.0784 4.30244 53.1876 4.27777 53.2982 4.27777C53.4087 4.27777 53.5179 4.30244 53.6178 4.34999L59.0583 6.29729C59.2094 6.35159 59.3388 6.45334 59.4272 6.58731C59.5156 6.72129 59.5583 6.88029 59.5488 7.04053C59.5345 7.19871 59.4708 7.34837 59.3667 7.46839C59.2627 7.58841 59.1236 7.67273 58.9691 7.70945C57.2128 8.12436 55.5813 8.95344 54.2107 10.1275C52.8402 11.3015 51.7704 12.7864 51.0907 14.4581C50.9978 14.6111 50.8527 14.7254 50.6823 14.7799C50.5118 14.8345 50.3273 14.8258 50.1628 14.7553C49.9983 14.6847 49.8647 14.5572 49.7867 14.3961C49.7086 14.235 49.6914 14.0512 49.738 13.8784C51.0347 10.7981 53.4443 8.31954 56.4867 6.93648L53.5137 5.79188C52.6813 6.44594 50.0799 8.76486 48.4596 14.473C48.4098 14.6361 48.3064 14.7777 48.1661 14.8748C48.0259 14.9719 47.8569 15.0189 47.6867 15.0081Z" fill="#323C6B"/>
        <path d="M70.1921 26.023C70.1921 33.4554 64.2461 53.5676 56.8137 53.5676C53.9865 53.5788 51.2285 52.6942 48.9353 51.0405C46.6592 52.6687 43.9298 53.5421 41.1313 53.5378C33.6988 53.5378 27.7529 33.4257 27.7529 25.9932C27.7235 23.511 28.3853 21.0696 29.6643 18.9421C30.9432 16.8145 32.7889 15.0848 34.9949 13.9463C37.2008 12.8079 39.68 12.3057 42.155 12.4958C44.6301 12.6859 47.0035 13.5609 49.0096 15.023C51.0158 13.5609 53.3892 12.6859 55.8643 12.4958C58.3393 12.3057 60.8185 12.8079 63.0244 13.9463C65.2304 15.0848 67.076 16.8145 68.355 18.9421C69.634 21.0696 70.2958 23.511 70.2664 25.9932L70.1921 26.023Z" fill="#FE7058"/>
        <path d="M70.1922 26.023C70.1922 33.4554 64.2462 53.5676 56.8138 53.5676C53.9866 53.5789 51.2285 52.6942 48.9354 51.0406C46.6593 52.6688 43.9299 53.5422 41.1313 53.5379C40.3273 53.483 39.5422 53.268 38.8224 52.9055C38.1025 52.543 37.4624 52.0404 36.9395 51.4271C39.6597 51.4007 42.3042 50.5278 44.5057 48.9298C46.7759 50.5715 49.5081 51.451 52.3097 51.4419C59.7422 51.4419 65.7624 31.3298 65.7624 23.8825C65.7622 21.7526 65.2569 19.6531 64.2879 17.7564C63.3189 15.8598 61.9138 14.22 60.1881 12.9716C63.0629 13.7367 65.6036 15.4321 67.4134 17.7932C69.2232 20.1542 70.2003 23.0481 70.1922 26.023Z" fill="#EA6453"/>
        <path d="M26.6382 110.649C26.5645 110.663 26.4889 110.663 26.4152 110.649C24.1929 109.947 22.1854 108.693 20.5811 107.002C18.9768 105.312 17.8283 103.242 17.2436 100.986C17.1943 100.789 17.2253 100.581 17.3299 100.406C17.4344 100.232 17.6039 100.107 17.801 100.057C17.9981 100.008 18.2068 100.039 18.381 100.144C18.5552 100.248 18.6808 100.418 18.7301 100.615C19.2572 102.619 20.2836 104.456 21.7133 105.956C23.1429 107.456 24.9294 108.569 26.9057 109.192C27.1029 109.221 27.2802 109.328 27.3986 109.488C27.5171 109.649 27.5671 109.849 27.5375 110.047C27.5079 110.244 27.4013 110.421 27.241 110.54C27.0807 110.658 26.8799 110.708 26.6828 110.678L26.6382 110.649Z" fill="#323C6B"/>
        <path d="M17.5401 98.2959C17.343 98.2959 17.154 98.2176 17.0146 98.0782C16.8752 97.9389 16.7969 97.7498 16.7969 97.5527V96.4378C16.8007 96.2419 16.8802 96.055 17.0188 95.9165C17.1573 95.7779 17.3442 95.6984 17.5401 95.6946C17.7372 95.6946 17.9263 95.7729 18.0657 95.9123C18.2051 96.0517 18.2834 96.2407 18.2834 96.4378V97.5527C18.2834 97.7498 18.2051 97.9389 18.0657 98.0782C17.9263 98.2176 17.7372 98.2959 17.5401 98.2959Z" fill="#323C6B"/>
        <path d="M74.6517 26.7662C74.4546 26.7662 74.2655 26.6879 74.1261 26.5485C73.9868 26.4091 73.9085 26.2201 73.9085 26.023C73.9121 21.5397 72.1498 17.2353 69.003 14.0419C68.9334 13.9728 68.8781 13.8906 68.8404 13.8C68.8026 13.7095 68.7832 13.6123 68.7832 13.5142C68.7832 13.4161 68.8026 13.3189 68.8404 13.2284C68.8781 13.1378 68.9334 13.0556 69.003 12.9865C69.1445 12.8494 69.3338 12.7727 69.5308 12.7727C69.7278 12.7727 69.917 12.8494 70.0585 12.9865C73.4717 16.461 75.3829 21.1376 75.3801 26.0081C75.382 26.1057 75.3648 26.2028 75.3292 26.2937C75.2937 26.3846 75.2406 26.4677 75.1729 26.5381C75.1053 26.6085 75.0245 26.6648 74.935 26.704C74.8456 26.7431 74.7493 26.7643 74.6517 26.7662Z" fill="#323C6B"/>
        <path d="M74.3986 31.0324C74.3008 31.0232 74.2058 30.9946 74.1191 30.9484C74.0324 30.9021 73.9558 30.8392 73.8936 30.7632C73.8314 30.6872 73.7849 30.5995 73.7567 30.5054C73.7286 30.4113 73.7194 30.3126 73.7297 30.2149V29.4568C73.7485 29.2609 73.8429 29.0801 73.9927 28.9525C74.1424 28.8249 74.336 28.7605 74.5324 28.773C74.6301 28.7805 74.7253 28.8072 74.8127 28.8517C74.9 28.8962 74.9777 28.9575 75.0412 29.0321C75.1048 29.1067 75.153 29.1931 75.183 29.2864C75.213 29.3797 75.2243 29.478 75.2161 29.5757L75.1418 30.3635C75.1267 30.5488 75.0413 30.7213 74.9031 30.8457C74.7649 30.97 74.5844 31.0369 74.3986 31.0324Z" fill="#323C6B"/>
        <path d="M87.9999 80.5473H18.358C15.911 80.5434 13.5653 79.5696 11.835 77.8393C10.1047 76.1089 9.13088 73.7633 9.12695 71.3162V62.0554C9.13088 59.6084 10.1047 57.2627 11.835 55.5324C13.5653 53.8021 15.911 52.8283 18.358 52.8243H87.9999C88.1352 52.8254 88.2675 52.8634 88.3828 52.9341C88.498 53.0048 88.5918 53.1056 88.654 53.2257C88.7191 53.3414 88.7533 53.472 88.7533 53.6047C88.7533 53.7375 88.7191 53.8681 88.654 53.9838C82.8716 62.5311 82.8716 70.8406 88.654 79.3879C88.7204 79.5058 88.7553 79.639 88.7553 79.7743C88.7553 79.9097 88.7204 80.0428 88.654 80.1608C88.5886 80.2771 88.4937 80.3741 88.3789 80.4419C88.264 80.5098 88.1333 80.5461 87.9999 80.5473ZM18.358 54.3108C16.3052 54.3148 14.3377 55.132 12.8861 56.5835C11.4346 58.035 10.6174 60.0026 10.6134 62.0554V71.3162C10.6174 73.369 11.4346 75.3366 12.8861 76.7881C14.3377 78.2397 16.3052 79.0569 18.358 79.0608H86.6324C84.1476 75.4122 82.8188 71.1001 82.8188 66.6858C82.8188 62.2715 84.1476 57.9594 86.6324 54.3108H18.358Z" fill="#323C6B"/>
        <path d="M45.3528 79.804H39.7487C36.5369 88.2547 36.5369 97.5899 39.7487 106.041H45.3528C42.2606 97.5684 42.2606 88.2762 45.3528 79.804Z" fill="#EEEFEE"/>
        <path d="M100.13 106.784H30.4879C28.0409 106.78 25.6952 105.806 23.9649 104.076C22.2346 102.345 21.2608 99.9997 21.2568 97.5527V88.2919C21.2608 85.8448 22.2346 83.4992 23.9649 81.7689C25.6952 80.0385 28.0409 79.0647 30.4879 79.0608H100.13C100.265 79.0619 100.397 79.0998 100.513 79.1705C100.628 79.2413 100.722 79.3421 100.784 79.4621C100.857 79.5751 100.896 79.7067 100.896 79.8412C100.896 79.9757 100.857 80.1073 100.784 80.2203C95.0014 88.7676 95.0014 97.077 100.784 105.624C100.857 105.737 100.896 105.869 100.896 106.003C100.896 106.138 100.857 106.269 100.784 106.382C100.722 106.502 100.628 106.603 100.513 106.674C100.397 106.745 100.265 106.783 100.13 106.784ZM30.4879 80.5473C28.4351 80.5512 26.4675 81.3684 25.016 82.82C23.5645 84.2715 22.7473 86.2391 22.7433 88.2919V97.5527C22.7473 99.6055 23.5645 101.573 25.016 103.025C26.4675 104.476 28.4351 105.293 30.4879 105.297H98.7622C96.2853 101.646 94.9611 97.3347 94.9611 92.9223C94.9611 88.5098 96.2853 84.1989 98.7622 80.5473H30.4879Z" fill="#323C6B"/>
        <path d="M27.1289 53.5676H32.5249V57.4473H27.1289V53.5676Z" fill="#E1E6E9"/>
        <path d="M38.9307 79.804H44.505V83.6838H38.9307V79.804Z" fill="#E1E6E9"/>
        <path d="M33.2078 80.5473H27.6186C27.4676 80.5483 27.3199 80.5034 27.1951 80.4184C27.0703 80.3334 26.9743 80.2125 26.9199 80.0716C23.6647 71.4497 23.6647 61.9367 26.9199 53.3148C26.9719 53.1712 27.0668 53.047 27.1918 52.9593C27.3168 52.8715 27.4658 52.8244 27.6186 52.8243H33.2078C33.3271 52.8244 33.4447 52.8531 33.5505 52.9082C33.6564 52.9633 33.7474 53.043 33.8159 53.1407C33.8845 53.2384 33.9285 53.3512 33.9442 53.4694C33.96 53.5877 33.947 53.708 33.9064 53.8203C30.9037 62.1345 30.9037 71.2371 33.9064 79.5513C33.9479 79.664 33.9615 79.7851 33.9459 79.9042C33.9304 80.0233 33.8862 80.1368 33.8172 80.2351C33.7473 80.3313 33.6556 80.4097 33.5498 80.4639C33.4439 80.5182 33.3267 80.5467 33.2078 80.5473ZM28.1389 79.0608H32.1672C29.4912 71.0278 29.4912 62.3438 32.1672 54.3108H28.1389C25.2395 62.3061 25.2395 71.0655 28.1389 79.0608Z" fill="#323C6B"/>
        <path d="M45.3525 106.784H39.7485C39.598 106.783 39.4511 106.737 39.3267 106.652C39.2023 106.568 39.1059 106.448 39.0498 106.308C35.7946 97.6862 35.7946 88.1732 39.0498 79.5513C39.1018 79.4077 39.1967 79.2835 39.3217 79.1958C39.4467 79.108 39.5957 79.0609 39.7485 79.0608H45.3525C45.4694 79.0613 45.5845 79.0899 45.6879 79.1443C45.7914 79.1986 45.8803 79.277 45.9471 79.373C46.0186 79.47 46.0654 79.5829 46.0835 79.702C46.1017 79.8211 46.0906 79.9429 46.0512 80.0567C43.0334 88.3683 43.0334 97.4762 46.0512 105.788C46.0906 105.902 46.1017 106.023 46.0835 106.143C46.0654 106.262 46.0186 106.375 45.9471 106.472C45.8803 106.568 45.7914 106.646 45.6879 106.7C45.5845 106.755 45.4694 106.783 45.3525 106.784ZM40.2687 105.297H44.312C41.6219 97.2666 41.6219 88.578 44.312 80.5473H40.2836C37.3731 88.5397 37.3679 97.3014 40.2687 105.297Z" fill="#323C6B"/>
        <path d="M56.7396 54.3108C53.965 54.3198 51.2497 53.5078 48.9355 51.977C46.6225 53.5103 43.9065 54.3225 41.1315 54.3108C32.822 54.3108 26.9355 32.8608 26.9355 26.0676C26.9355 22.3012 28.4307 18.6889 31.0925 16.0243C33.7544 13.3597 37.3651 11.8607 41.1315 11.8568C43.909 11.8432 46.6269 12.6611 48.9355 14.2054C51.2453 12.6636 53.9625 11.8459 56.7396 11.8568C60.5048 11.8646 64.1132 13.3648 66.7742 16.0286C69.4352 18.6924 70.9316 22.3024 70.9355 26.0676C70.9355 32.8608 65.0491 54.3108 56.7396 54.3108ZM48.9355 50.327C49.0893 50.3277 49.2394 50.3743 49.3666 50.4608C51.5315 52.0155 54.1339 52.843 56.7991 52.8243C63.4585 52.8243 69.5085 33.5 69.5085 26.0676C69.5046 22.6967 68.1648 19.4647 65.7826 17.0797C63.4004 14.6947 60.17 13.3511 56.7991 13.3433C54.1339 13.3246 51.5315 14.1521 49.3666 15.7068C49.2399 15.7943 49.0896 15.8413 48.9355 15.8413C48.7815 15.8413 48.6312 15.7943 48.5045 15.7068C46.3405 14.1502 43.7375 13.3225 41.072 13.3433C37.6999 13.3472 34.4672 14.6895 32.0842 17.0754C29.7011 19.4612 28.3626 22.6954 28.3626 26.0676C28.3626 33.5 34.3977 52.8243 41.072 52.8243C43.735 52.8433 46.336 52.0214 48.5045 50.4757C48.6269 50.3783 48.7791 50.3258 48.9355 50.327Z" fill="#323C6B"/>
        <path d="M46.854 77.1879H46.2743C46.0299 77.1879 45.7954 77.0908 45.6226 76.9179C45.4498 76.7451 45.3527 76.5107 45.3527 76.2662C45.3507 76.1446 45.3731 76.0239 45.4187 75.9112C45.4643 75.7984 45.5321 75.696 45.6181 75.6101C45.7041 75.5241 45.8065 75.4563 45.9192 75.4107C46.032 75.3651 46.1527 75.3426 46.2743 75.3446H46.854C47.0984 75.3446 47.3329 75.4417 47.5057 75.6145C47.6785 75.7874 47.7756 76.0218 47.7756 76.2662C47.7756 76.5107 47.6785 76.7451 47.5057 76.9179C47.3329 77.0908 47.0984 77.1879 46.854 77.1879Z" fill="white"/>
        <path d="M60.6782 77.2027H50.362C50.2409 77.2008 50.1215 77.175 50.0104 77.1269C49.8993 77.0788 49.7988 77.0093 49.7146 76.9223C49.6304 76.8353 49.5642 76.7326 49.5196 76.6201C49.4751 76.5075 49.4532 76.3873 49.4552 76.2662C49.4531 76.1453 49.4757 76.0252 49.5214 75.9133C49.5672 75.8014 49.6353 75.6999 49.7215 75.6151C49.8077 75.5303 49.9102 75.4639 50.0229 75.4199C50.1355 75.376 50.256 75.3554 50.3768 75.3595H60.6931C60.8112 75.3513 60.9297 75.3676 61.0413 75.4072C61.1528 75.4469 61.255 75.5091 61.3415 75.59C61.428 75.6709 61.4968 75.7687 61.5438 75.8774C61.5908 75.986 61.615 76.1032 61.6147 76.2216C61.6149 76.4743 61.5177 76.7173 61.3433 76.9001C61.1688 77.0828 60.9306 77.1912 60.6782 77.2027Z" fill="white"/>
    </g>
    <defs>
        <clipPath id="clip0_8749_23714">
            <rect width="110" height="110" fill="white" transform="translate(0 0.5)"/>
        </clipPath>
    </defs>
</svg>
