<svg width="61" height="76" viewBox="0 0 61 76" fill="none" xmlns="http://www.w3.org/2000/svg">
    <g clip-path="url(#clip0_4573_111117)">
        <path fill-rule="evenodd" clip-rule="evenodd" d="M58.7385 71.8185C58.55 72.1327 58.4244 72.2584 58.4872 72.1955C58.4872 72.1955 58.6128 72.007 58.7385 71.8185ZM27.3904 73.5779C26.6993 74.2062 26.0083 74.5832 25.3801 74.8345C24.8775 75.023 24.4378 75.0859 24.3121 75.1487C24.3121 75.1487 23.998 75.1487 23.8724 75.1487C23.6839 75.1487 23.4954 75.1487 23.3698 75.1487C23.1185 75.1487 22.8672 75.1487 22.5531 75.1487C21.9877 75.1487 21.2338 75.1487 20.3543 75.1487C18.6582 75.1487 16.4594 75.1487 14.2606 75.1487C12.0619 75.1487 9.86309 75.0858 8.22973 75.023C7.41304 75.023 6.65918 75.023 6.09378 74.9602C5.8425 74.9602 5.52839 74.9602 5.2771 74.9602C5.15146 74.9602 4.96299 74.9602 4.7117 74.8974C4.58606 74.8974 4.33477 74.8974 4.08349 74.7717C3.95784 74.7717 3.64373 74.646 3.32962 74.5203C3.14116 74.3947 2.32447 74.0805 1.57061 73.3265C0.753929 72.5097 0.43982 71.63 0.314176 71.4415C0.188532 71.1274 0.12571 70.8132 0.0628885 70.6875C6.66239e-05 70.3733 -0.0627552 70.122 -0.0627552 69.9964C-0.0627552 69.745 -0.0627552 69.4309 -0.125577 69.2424C-0.125577 68.8025 -0.125577 68.2999 -0.188399 67.6715C-0.188399 66.4777 -0.251221 64.7812 -0.251221 62.8334C6.66417e-05 58.9377 6.66417e-05 53.7225 6.66417e-05 48.4445C6.66417e-05 43.1665 6.66298e-05 37.8885 0.12571 33.6787C0.12571 31.6052 0.188532 29.783 0.251354 28.4007C0.251354 27.2697 0.314176 25.8873 0.502641 25.0705C2.76423 11.8127 13.6324 1.57083 26.9506 0.188494C44.9805 -1.69651 57.0423 10.179 60.1834 23.6253C62.8847 35.2495 58.9898 48.5702 46.8023 55.6703C48.1844 56.7385 49.378 57.7438 50.3832 58.5607C54.0268 61.5138 55.9743 63.0218 56.9167 63.7758C57.2308 64.0272 57.5449 64.2785 57.7962 64.5299C57.9218 64.6555 58.6757 65.3467 59.1782 66.352C59.5552 67.0432 59.9321 68.237 59.7436 69.745C59.6808 70.6875 59.3667 72.2584 57.9846 73.515C56.7282 74.7089 55.3461 75.023 54.9063 75.0859C54.341 75.2115 53.7756 75.2744 53.3986 75.2744C52.0794 75.3372 49.5665 75.3372 45.169 75.2744C44.4151 75.2744 43.5984 75.2744 42.7189 75.2744C41.274 75.2744 39.8919 75.2744 38.7611 75.2744C37.4419 75.2744 36.3111 75.2744 35.3688 75.2744C33.7354 75.2744 31.9764 75.2115 30.4687 74.7717C29.3379 74.4575 28.4584 74.0177 27.7045 73.4522L27.3904 73.5779ZM29.5892 67.86C29.275 67.483 28.9609 66.9803 28.584 66.4148C28.584 66.4148 28.3327 66.1007 28.2071 65.9122C25.5057 62.3307 25.3173 62.1422 24.8775 62.3935C24.5634 62.582 24.5634 62.6448 24.2493 66.0379C24.1865 66.7919 24.1237 67.3573 24.0608 67.7972C23.998 68.6769 23.8724 69.0538 23.8095 69.3052C23.7467 69.4937 23.6211 69.5565 23.5583 69.5565C23.0557 69.745 6.03096 69.5565 5.8425 69.368C5.40274 68.9282 5.52839 28.4635 5.90532 26.013C7.78997 15.2685 16.7107 6.84883 27.4532 5.78066C55.7859 2.82749 65.7745 40.5275 41.9022 51.9003C41.7766 51.9003 41.7138 51.9632 41.5881 52.026C40.583 52.4658 39.515 52.9057 38.3842 53.2827C37.3162 53.6597 36.5624 53.7853 36.4996 54.0995C36.3739 54.5393 37.2534 55.3562 39.7663 57.3668C40.0176 57.5553 40.2689 57.7438 40.5201 57.9952C40.6458 58.1208 40.8343 58.2465 40.9599 58.3722C41.5881 58.8748 42.342 59.4403 43.1587 60.1315C45.2318 61.828 46.928 63.1475 48.3101 64.2785C48.9383 64.7812 49.5037 65.221 50.0062 65.598C53.7756 68.614 54.0897 68.9282 54.0269 69.0538C54.0269 69.0538 54.0269 69.1167 54.0269 69.1795C54.0269 69.3052 54.0269 69.4308 54.0269 69.5565C53.9012 69.8707 53.1473 69.8707 48.5613 69.8707C47.9331 69.8707 47.1793 69.8707 46.4254 69.8707C45.3574 69.8707 44.101 69.8707 42.6561 69.8707C34.3636 69.8707 32.1648 70.0592 30.8456 69.1167C30.4687 68.8654 30.1545 68.4884 29.7776 67.9857L29.5892 67.86Z" fill="#8840E6"/>
        <path fill-rule="evenodd" clip-rule="evenodd" d="M12.7373 32.2597L26.0019 20.6424C26.8381 19.91 27.9796 19.6326 29.0586 19.8996L45.9156 24.0704C46.2434 24.1515 46.3294 24.5773 46.0588 24.7793L40.6145 28.8422C40.2588 29.1076 40.0807 29.5474 40.1546 29.985C40.2808 30.7337 40.4113 31.5749 40.3365 32.1735L40.3358 32.1793C40.2355 32.9816 40.0234 34.679 34.5365 36.9735C29.0365 39.2735 24.5365 39.1735 23.0365 38.6735C21.5365 38.1735 21.1365 37.6735 20.8365 37.0735C20.626 36.6525 20.1201 35.0992 19.837 34.2098C19.7143 33.8244 19.3739 33.5493 18.9712 33.5122L12.9641 32.959C12.6142 32.9267 12.4729 32.4913 12.7373 32.2597ZM31.3859 37.4413C36.569 36.0525 40.3757 33.4523 39.8884 31.6336C39.4011 29.8149 34.8043 29.4664 29.6212 30.8552C24.438 32.2441 20.6313 34.8443 21.1187 36.663C21.606 38.4817 26.2028 38.8302 31.3859 37.4413Z" fill="#8840E6"/>
    </g>
    <defs>
        <clipPath id="clip0_4573_111117">
            <rect width="61" height="75.4" fill="white"/>
        </clipPath>
    </defs>
</svg>