<svg width="110" height="111" viewBox="0 0 110 111" fill="none" xmlns="http://www.w3.org/2000/svg">
    <path fill-rule="evenodd" clip-rule="evenodd" d="M82.4445 61.6111V54.1119L54.1823 67.2377C53.2916 67.6512 52.3186 67.8657 51.3334 67.8657C50.3482 67.8657 49.3752 67.6512 48.4845 67.2377L20.2223 54.1119V61.6111C20.2223 69.715 23.5001 77.4869 29.3345 83.2172C35.169 88.9474 43.0822 92.1667 51.3334 92.1667C54.0578 92.1667 56.7454 91.8157 59.3334 91.1393V107.5C59.3334 109.157 60.6766 110.5 62.3334 110.5H99.0001C100.657 110.5 102 109.157 102 107.5V71.5952C102 69.9383 100.657 68.5952 99.0001 68.5952H81.621C82.164 66.3241 82.4445 63.9818 82.4445 61.6111ZM94.5378 31.0818L54.1823 12.3381V12.3425C53.2916 11.929 52.3186 11.7145 51.3334 11.7145C50.3482 11.7145 49.3752 11.929 48.4845 12.3425L8.12896 31.0861C7.29273 31.4754 6.58617 32.0898 6.0914 32.8579C5.59663 33.6259 5.33398 34.5161 5.33398 35.425C5.33398 36.3339 5.59663 37.2241 6.0914 37.9922C6.58617 38.7603 7.29273 39.3746 8.12896 39.7639L48.4845 58.5119C49.3752 58.9254 50.3482 59.1399 51.3334 59.1399C52.3186 59.1399 53.2916 58.9254 54.1823 58.5119L86.889 43.3215V57.2461C86.889 58.4037 87.3572 59.514 88.1907 60.3326C89.0242 61.1512 90.1547 61.6111 91.3334 61.6111C92.5121 61.6111 93.6426 61.1512 94.4761 60.3326C95.3096 59.514 95.7778 58.4037 95.7778 57.2461V38.952C98.2134 36.7651 97.8001 32.5921 94.5378 31.0818Z" fill="#805200"/>
    <path d="M48.6378 58.0584L81.3444 42.868L82.055 42.5379V43.3215V57.2461C82.055 58.2682 82.4683 59.2503 83.2071 59.9759C83.9461 60.7018 84.9504 61.1111 85.9994 61.1111C87.0484 61.1111 88.0527 60.7018 88.7918 59.9759C89.5305 59.2503 89.9439 58.2682 89.9439 57.2461V38.952V38.729L90.1098 38.58C92.2896 36.6227 91.9164 32.8886 88.9938 31.5355L88.9932 31.5353L49.3483 13.1217V13.1259L48.6378 12.796C47.8132 12.4132 46.9122 12.2145 45.9994 12.2145C45.0867 12.2145 44.1856 12.4132 43.3611 12.796L3.00599 31.5394C2.2545 31.8893 1.62086 32.4408 1.17775 33.1286C0.734704 33.8164 0.5 34.6127 0.5 35.425C0.5 36.2373 0.734703 37.0336 1.17775 37.7214C1.6208 38.4092 2.2543 38.9606 3.00564 39.3105L48.6378 58.0584ZM48.6378 58.0584C48.6378 58.0584 48.6377 58.0584 48.6377 58.0584C47.8132 58.4412 46.9121 58.6399 45.9994 58.6399C45.0867 58.6399 44.1856 58.4412 43.3611 58.0584L3.00599 39.3106L48.6378 58.0584ZM76.6105 54.8954V61.6111C76.6105 69.5794 73.3877 77.2232 67.6479 82.8604C61.9079 88.498 54.1209 91.6667 45.9994 91.6667C37.878 91.6667 30.0909 88.498 24.3509 82.8604C18.6112 77.2232 15.3883 69.5794 15.3883 61.6111V54.8954L42.9399 67.6912L42.94 67.6912C43.8969 68.1354 44.9417 68.3657 45.9994 68.3657C47.0571 68.3657 48.1019 68.1354 49.0588 67.6912L49.0589 67.6912L76.6105 54.8954Z" fill="#F37424" stroke="black"/>
    <rect x="57.166" y="66.4762" width="41.6667" height="40.9048" rx="2.5" fill="#F9D51B" stroke="black"/>
    <path d="M76.9063 94.7857L76.0111 92.2939H69.185L68.2897 94.7857H64.6641L70.5726 79.0714H74.6011L80.5319 94.7857H76.9063ZM70.2592 89.2632H74.9368L74.0639 86.8163C73.9446 86.4571 73.8401 86.1279 73.7506 85.8286C73.6611 85.5292 73.579 85.2224 73.5044 84.9081C73.4447 84.5939 73.3925 84.2571 73.3478 83.8979C73.303 83.5388 73.2582 83.1272 73.2135 82.6632H71.9825C71.9378 83.1422 71.8856 83.5687 71.8259 83.9428C71.7811 84.302 71.7214 84.6388 71.6468 84.953C71.5871 85.2673 71.5125 85.5741 71.423 85.8735C71.3484 86.1578 71.2514 86.4721 71.1321 86.8163L70.2592 89.2632Z" fill="#805200"/>
    <path d="M93.9974 85.9857V88.4551H89.3422V93.2143H86.7461V88.4551H82.0685V85.9857H86.7461V81.249H89.3422V85.9857H93.9974Z" fill="#805200"/>
</svg>
