<svg width="110" height="111" viewBox="0 0 110 111" fill="none" xmlns="http://www.w3.org/2000/svg">
    <path d="M86.3644 47.1757V75.9095C82.1012 76.6857 77.9098 77.8143 73.8333 79.2838C66.8915 81.8108 58.4333 85.9135 52.755 92.4243C41.4131 79.4324 19.1455 75.9095 19.1455 75.9095V47.1757" fill="#9297AB"/>
    <path d="M86.3645 47.1757V75.9094C82.1013 76.6856 77.9099 77.8143 73.8334 79.2838C66.8915 81.8108 58.4334 85.9135 52.7551 92.4243C51.6148 91.1234 50.3775 89.9109 49.0537 88.7973C54.6875 82.7473 62.6848 78.8824 69.3888 76.4594C73.4627 74.9815 77.6548 73.8527 81.9199 73.0851V47.1757H86.3645Z" fill="#84879C"/>
    <path d="M52.7551 17.773L2.70508 40.5014L52.7551 63.2149L102.82 40.5014L52.7551 17.773Z" fill="#9297AB"/>
    <path d="M102.82 40.5014L96.4875 43.3703L51.2686 22.8419L7.55102 42.7014L2.70508 40.5014L52.7551 17.773L102.82 40.5014Z" fill="#84879C"/>
    <path d="M98.777 54.6676C98.6336 54.6694 98.4927 54.6296 98.3714 54.5531C98.2501 54.4766 98.1535 54.3667 98.0932 54.2365L93.8419 44.8716L72.8378 35.4324C72.7465 35.3953 72.6637 35.34 72.5943 35.2699C72.525 35.1998 72.4706 35.1164 72.4345 35.0247C72.3983 34.9329 72.3812 34.8348 72.3841 34.7363C72.387 34.6377 72.4099 34.5408 72.4513 34.4514C72.5354 34.2749 72.6844 34.1377 72.8672 34.0684C73.05 33.9992 73.2525 34.0032 73.4324 34.0797L94.704 43.6081C94.8683 43.6837 95.0001 43.8155 95.0757 43.9797L99.4459 53.5973C99.499 53.7092 99.5227 53.8327 99.5148 53.9562C99.5068 54.0798 99.4675 54.1993 99.4006 54.3034C99.3336 54.4076 99.2412 54.4929 99.1321 54.5514C99.023 54.61 98.9008 54.6397 98.777 54.6378V54.6676Z" fill="#323C6B"/>
    <path d="M99.2226 68.4919V75.9838L105.54 73.9919L102.686 61.4905H95.774L92.9199 73.9919L99.2226 75.9838" fill="#F9D51B"/>
    <path d="M99.2228 76.727C99.1592 76.7411 99.0932 76.7411 99.0296 76.727L92.7269 74.7202C92.5494 74.662 92.3996 74.5403 92.3063 74.3784C92.2131 74.2166 92.1828 74.026 92.2215 73.8432L95.0755 61.3567C95.1127 61.1916 95.2052 61.0441 95.3377 60.9387C95.4701 60.8333 95.6346 60.7762 95.8039 60.777H102.716C102.885 60.7762 103.05 60.8333 103.182 60.9387C103.315 61.0441 103.407 61.1916 103.444 61.3567L106.298 73.8432C106.341 74.0262 106.312 74.2184 106.218 74.3811C106.124 74.5437 105.973 74.6649 105.793 74.7202L99.4904 76.727H99.2228ZM99.2228 67.8081C99.4199 67.8081 99.609 67.8864 99.7484 68.0258C99.8877 68.1651 99.966 68.3542 99.966 68.5513V74.9729L104.663 73.4864L102.092 62.2337H96.3688L93.7971 73.4864L98.4796 74.9729V68.4919C98.4796 68.2947 98.5579 68.1057 98.6972 67.9663C98.8366 67.8269 99.0257 67.7486 99.2228 67.7486V67.8081Z" fill="#323C6B"/>
    <path d="M70.89 86.0176C70.747 86.0175 70.6069 85.977 70.4859 85.9008C70.3649 85.8245 70.2679 85.7155 70.2062 85.5865C70.1648 85.497 70.1419 85.4001 70.139 85.3016C70.1361 85.203 70.1532 85.1049 70.1894 85.0132C70.2255 84.9214 70.2799 84.838 70.3492 84.7679C70.4185 84.6978 70.5014 84.6425 70.5927 84.6054C72.2278 83.877 73.6697 83.2973 75.0522 82.7919C77.671 81.8603 80.3352 81.0616 83.0346 80.3986C83.2317 80.3513 83.4396 80.3843 83.6124 80.4902C83.7852 80.5961 83.9089 80.7664 83.9562 80.9635C84.0035 81.1606 83.9706 81.3685 83.8647 81.5413C83.7587 81.7141 83.5885 81.8378 83.3914 81.8851C80.7394 82.5193 78.1242 83.2984 75.5576 84.2189C74.1751 84.7095 72.7778 85.2743 71.0981 85.9878C71.0305 86.0074 70.9604 86.0174 70.89 86.0176Z" fill="#323C6B"/>
    <path d="M66.2379 88.3067C66.1062 88.3056 65.977 88.2709 65.8626 88.2059C65.7481 88.1408 65.6521 88.0476 65.5838 87.9351C65.5367 87.8493 65.507 87.755 65.4965 87.6577C65.486 87.5603 65.4948 87.4619 65.5224 87.3679C65.55 87.274 65.5959 87.1865 65.6575 87.1103C65.719 87.0342 65.795 86.971 65.8811 86.9243L66.1487 86.7757L66.8324 86.404C66.9181 86.3578 67.0121 86.3292 67.1089 86.3199C67.2057 86.3107 67.3035 86.3209 67.3963 86.35C67.4891 86.3791 67.5752 86.4265 67.6494 86.4894C67.7236 86.5523 67.7845 86.6294 67.8284 86.7162C67.9177 86.8899 67.935 87.0918 67.8765 87.2782C67.8181 87.4646 67.6887 87.6205 67.5162 87.7121L66.8622 88.0689L66.5946 88.2176C66.485 88.2767 66.3624 88.3074 66.2379 88.3067V88.3067Z" fill="#323C6B"/>
    <path d="M15.8754 30.2297C15.6782 30.2691 15.4735 30.2286 15.3063 30.1171C15.139 30.0056 15.0229 29.8322 14.9835 29.6351C14.944 29.438 14.9845 29.2333 15.0961 29.066C15.2076 28.8988 15.3809 28.7826 15.5781 28.7432L26.5335 23.7784C26.622 23.7365 26.7181 23.7129 26.8159 23.709C26.9138 23.705 27.0114 23.7209 27.103 23.7556C27.1946 23.7903 27.2783 23.8431 27.349 23.9109C27.4197 23.9786 27.476 24.06 27.5146 24.15C27.5911 24.3299 27.5951 24.5324 27.5259 24.7152C27.4566 24.898 27.3194 25.047 27.1429 25.1311L16.1875 30.0959C16.0942 30.1623 15.9878 30.2079 15.8754 30.2297V30.2297Z" fill="#323C6B"/>
    <path d="M30.4129 23.5851C30.2702 23.5834 30.1308 23.5422 30.0101 23.4661C29.8895 23.39 29.7922 23.282 29.7291 23.154C29.6487 22.9746 29.6426 22.7706 29.7123 22.5867C29.7819 22.4029 29.9216 22.2541 30.1007 22.173L30.7696 21.8608C30.8594 21.8135 30.9579 21.7851 31.0591 21.7773C31.1602 21.7695 31.2619 21.7825 31.3578 21.8155C31.4538 21.8485 31.542 21.9008 31.6169 21.9692C31.6919 22.0375 31.7521 22.1205 31.7938 22.213C31.8354 22.3055 31.8577 22.4056 31.8593 22.507C31.8608 22.6085 31.8416 22.7092 31.8027 22.8029C31.7639 22.8966 31.7063 22.9814 31.6334 23.052C31.5605 23.1227 31.474 23.1776 31.3791 23.2135L30.7102 23.5257C30.6169 23.568 30.5152 23.5883 30.4129 23.5851V23.5851Z" fill="#323C6B"/>
    <path d="M99.2229 63.0662C101.751 63.0662 103.801 61.0164 103.801 58.4878C103.801 55.9593 101.751 53.9095 99.2229 53.9095C96.6943 53.9095 94.6445 55.9593 94.6445 58.4878C94.6445 61.0164 96.6943 63.0662 99.2229 63.0662Z" fill="#F9D51B"/>
    <path d="M99.2232 63.8094C98.1677 63.8094 97.136 63.4965 96.2584 62.9101C95.3808 62.3237 94.6968 61.4903 94.2929 60.5151C93.889 59.54 93.7834 58.467 93.9893 57.4319C94.1952 56.3967 94.7034 55.4458 95.4497 54.6995C96.1961 53.9532 97.1469 53.4449 98.1821 53.239C99.2173 53.0331 100.29 53.1388 101.265 53.5427C102.241 53.9466 103.074 54.6306 103.66 55.5082C104.247 56.3858 104.56 57.4175 104.56 58.473C104.56 59.8883 103.997 61.2456 102.997 62.2464C101.996 63.2472 100.639 63.8094 99.2232 63.8094V63.8094ZM99.2232 54.6378C98.4611 54.6378 97.7162 54.864 97.0827 55.2877C96.4493 55.7114 95.9558 56.3136 95.6649 57.0179C95.3739 57.7223 95.2986 58.4972 95.4483 59.2444C95.5981 59.9916 95.9662 60.6776 96.5061 61.2154C97.0461 61.7533 97.7335 62.1188 98.4813 62.2657C99.2291 62.4125 100.004 62.3342 100.707 62.0405C101.41 61.7468 102.01 61.251 102.432 60.6159C102.853 59.9809 103.076 59.235 103.073 58.473C103.069 57.4545 102.662 56.479 101.94 55.7602C101.219 55.0414 100.242 54.6378 99.2232 54.6378Z" fill="#323C6B"/>
    <path d="M52.7553 63.9581C52.6574 63.9804 52.5558 63.9804 52.458 63.9581L2.3931 41.1703C2.26333 41.1111 2.15332 41.0159 2.07617 40.896C1.99903 40.7761 1.95801 40.6365 1.95801 40.4939C1.95801 40.3513 1.99903 40.2117 2.07617 40.0918C2.15332 39.9719 2.26333 39.8767 2.3931 39.8176L52.458 17.104C52.5535 17.06 52.6575 17.0372 52.7627 17.0372C52.8679 17.0372 52.9719 17.06 53.0674 17.104L103.117 39.8176C103.247 39.8767 103.357 39.9719 103.434 40.0918C103.511 40.2117 103.553 40.3513 103.553 40.4939C103.553 40.6365 103.511 40.7761 103.434 40.896C103.357 41.0159 103.247 41.1111 103.117 41.1703L53.0674 63.8986C52.9686 63.9399 52.8623 63.9601 52.7553 63.9581V63.9581ZM4.45931 40.5013L52.7553 62.3973L101.081 40.5013L52.7553 18.5905L4.45931 40.5013Z" fill="#323C6B"/>
    <path d="M52.755 93.1676C52.6505 93.1683 52.547 93.1461 52.4519 93.1024C52.3569 93.0588 52.2726 92.9947 52.205 92.9149C41.1753 80.2797 19.324 76.6824 19.0415 76.6527C18.8642 76.6246 18.7027 76.5344 18.5856 76.3983C18.4686 76.2622 18.4036 76.089 18.4023 75.9095V47.9635C18.4023 47.7664 18.4806 47.5774 18.62 47.438C18.7594 47.2986 18.9485 47.2203 19.1456 47.2203C19.3427 47.2203 19.5318 47.2986 19.6711 47.438C19.8105 47.5774 19.8888 47.7664 19.8888 47.9635V75.2851C23.605 75.9541 42.1861 79.7446 52.755 91.3095C57.5118 86.1365 64.5132 81.8554 73.5659 78.5851C77.4897 77.1809 81.5149 76.0777 85.6064 75.2851V47.9635C85.6064 47.7664 85.6847 47.5774 85.8241 47.438C85.9635 47.2986 86.1525 47.2203 86.3496 47.2203C86.5468 47.2203 86.7358 47.2986 86.8752 47.438C87.0146 47.5774 87.0929 47.7664 87.0929 47.9635V75.9095C87.0922 76.0868 87.0293 76.2583 86.9153 76.3941C86.8012 76.5299 86.6431 76.6214 86.4686 76.6527C82.2429 77.4095 78.0902 78.5285 74.0564 79.9973C64.8848 83.2973 57.8983 87.6378 53.2456 92.9149C53.1215 93.0602 52.9454 93.1509 52.755 93.1676V93.1676Z" fill="#323C6B"/>
    <path d="M29.15 48.6027L28.5554 48.3351C28.438 48.2808 28.3325 48.2038 28.245 48.1085C28.1574 48.0133 28.0896 47.9016 28.0454 47.78C28.0012 47.6585 27.9815 47.5293 27.9873 47.4001C27.9932 47.2709 28.0246 47.1441 28.0797 47.027C28.1325 46.9101 28.2081 46.805 28.302 46.7176C28.3959 46.6302 28.5063 46.5624 28.6266 46.5181C28.747 46.4739 28.875 46.454 29.0031 46.4597C29.1313 46.4654 29.257 46.4966 29.373 46.5513L29.9824 46.8189C30.2168 46.9317 30.3978 47.1316 30.4867 47.3761C30.5756 47.6205 30.5653 47.8901 30.4581 48.127C30.4038 48.2444 30.3267 48.3499 30.2315 48.4375C30.1362 48.525 30.0246 48.5928 29.903 48.637C29.7814 48.6812 29.6523 48.701 29.5231 48.6951C29.3938 48.6892 29.267 48.6578 29.15 48.6027V48.6027Z" fill="white"/>
    <path d="M44.446 55.7081L32.8663 50.327C32.6297 50.2186 32.4459 50.0207 32.3553 49.7767C32.2647 49.5328 32.2747 49.2629 32.3832 49.0263C32.4916 48.7898 32.6895 48.606 32.9334 48.5154C33.1774 48.4248 33.4473 48.4348 33.6838 48.5432L45.2784 53.9243C45.3972 53.977 45.5041 54.0532 45.5928 54.1482C45.6814 54.2432 45.75 54.3551 45.7944 54.4772C45.8388 54.5993 45.8582 54.7292 45.8512 54.8589C45.8443 54.9887 45.8113 55.1157 45.7541 55.2324C45.6998 55.3498 45.6228 55.4553 45.5275 55.5428C45.4322 55.6304 45.3206 55.6982 45.199 55.7424C45.0774 55.7866 44.9483 55.8063 44.8191 55.8005C44.6898 55.7946 44.5631 55.7632 44.446 55.7081V55.7081Z" fill="white"/>
</svg>