<svg width="110" height="111" viewBox="0 0 110 111" fill="none" xmlns="http://www.w3.org/2000/svg">
    <path d="M26.46 56.9865L29.3437 100.526C29.4493 102.029 30.122 103.437 31.2258 104.464C32.3297 105.49 33.7823 106.059 35.2897 106.055H74.7559C76.2633 106.059 77.7159 105.49 78.8198 104.464C79.9236 103.437 80.5963 102.029 80.7019 100.526L83.541 56.9865" fill="#E7AA6C"/>
    <path d="M84.9531 43.504H25.0477C23.4222 43.504 22.1045 44.8218 22.1045 46.4473V54.0284C22.1045 55.6539 23.4222 56.9716 25.0477 56.9716H84.9531C86.5787 56.9716 87.8964 55.6539 87.8964 54.0284V46.4473C87.8964 44.8218 86.5787 43.504 84.9531 43.504Z" fill="#E7AA6C"/>
    <path d="M83.5411 56.9865L80.6573 100.511C80.5518 102.015 79.879 103.422 78.7752 104.449C77.6713 105.475 76.2188 106.044 74.7113 106.041H35.2451C33.9919 106.035 32.7724 105.635 31.7607 104.895C30.7489 104.156 29.9967 103.115 29.6113 101.923C29.8979 101.953 30.1869 101.953 30.4735 101.923H69.9843C71.4941 101.926 72.9487 101.355 74.053 100.326C75.1572 99.296 75.8283 97.8848 75.9303 96.3784L78.5019 56.9865H83.5411Z" fill="#E7AA6C"/>
    <path d="M87.8961 46.4474V54.0136C87.8961 54.8021 87.5828 55.5583 87.0253 56.1158C86.4677 56.6733 85.7116 56.9866 84.9231 56.9866H79.8096C80.5981 56.9866 81.3542 56.6733 81.9118 56.1158C82.4693 55.5583 82.7825 54.8021 82.7825 54.0136V46.4325C82.7825 45.644 82.4693 44.8878 81.9118 44.3303C81.3542 43.7728 80.5981 43.4595 79.8096 43.4595H84.9528C85.7387 43.4674 86.4895 43.7861 87.0411 44.346C87.5926 44.9059 87.9 45.6614 87.8961 46.4474V46.4474Z" fill="#E7AA6C"/>
    <path d="M27.2625 70.023C27.0599 70.017 26.8677 69.9315 26.7274 69.7852C26.6582 69.7173 26.6032 69.6364 26.5657 69.547C26.5281 69.4577 26.5088 69.3618 26.5088 69.2649C26.5088 69.168 26.5281 69.0721 26.5657 68.9827C26.6032 68.8934 26.6582 68.8124 26.7274 68.7446L39.4815 56.4365C39.5517 56.3682 39.6348 56.3144 39.7259 56.2781C39.8169 56.2419 39.9142 56.224 40.0122 56.2254C40.1102 56.2267 40.207 56.2474 40.297 56.2862C40.387 56.325 40.4685 56.3811 40.5369 56.4514C40.6052 56.5216 40.659 56.6047 40.6952 56.6958C40.7315 56.7868 40.7494 56.8841 40.748 56.9822C40.7466 57.0802 40.726 57.1769 40.6872 57.2669C40.6484 57.357 40.5923 57.4385 40.522 57.5068L27.7531 69.8149C27.6194 69.9402 27.4456 70.014 27.2625 70.023V70.023Z" fill="#323C6B"/>
    <path d="M28.2432 83.5648C28.0815 83.5922 27.9154 83.5653 27.7706 83.4884C27.6258 83.4115 27.5104 83.2888 27.4426 83.1395C27.3747 82.9903 27.3582 82.8228 27.3954 82.6631C27.4327 82.5034 27.5217 82.3605 27.6486 82.2567L54.4946 56.3918C54.6408 56.2732 54.8266 56.2146 55.0145 56.2277C55.2023 56.2408 55.3782 56.3248 55.5065 56.4625C55.6349 56.6003 55.7061 56.7817 55.7059 56.97C55.7057 57.1583 55.634 57.3395 55.5054 57.477L47.1662 65.5189L28.6743 83.3567C28.5582 83.4727 28.4063 83.546 28.2432 83.5648Z" fill="#323C6B"/>
    <path d="M29.0454 97.1216C28.8982 97.1196 28.7548 97.0738 28.6336 96.9902C28.5123 96.9065 28.4187 96.7887 28.3646 96.6517C28.3104 96.5148 28.2982 96.3648 28.3294 96.2208C28.3607 96.0769 28.434 95.9455 28.54 95.8433L69.4333 56.4365C69.5752 56.2985 69.7661 56.2226 69.964 56.2254C70.162 56.2281 70.3507 56.3094 70.4887 56.4514C70.6267 56.5933 70.7026 56.7842 70.6998 56.9822C70.697 57.1801 70.6157 57.3688 70.4738 57.5068L54.6427 72.7433L29.5657 96.9135C29.498 96.9823 29.4169 97.0362 29.3273 97.072C29.2378 97.1079 29.1418 97.1247 29.0454 97.1216V97.1216Z" fill="#323C6B"/>
    <path d="M34.0855 106.68C33.9382 106.678 33.7948 106.632 33.6736 106.548C33.5524 106.465 33.4588 106.347 33.4046 106.21C33.3504 106.073 33.3382 105.923 33.3694 105.779C33.4007 105.635 33.474 105.504 33.5801 105.401L82.9463 57.8338C83.0882 57.6959 83.2791 57.6199 83.4771 57.6227C83.675 57.6255 83.8637 57.7068 84.0017 57.8487C84.1397 57.9906 84.2156 58.1816 84.2128 58.3795C84.2101 58.5774 84.1288 58.7661 83.9868 58.9041L34.6057 106.472C34.4645 106.604 34.2788 106.678 34.0855 106.68Z" fill="#323C6B"/>
    <path d="M48.9351 106.784C48.7878 106.782 48.6444 106.736 48.5232 106.652C48.402 106.569 48.3084 106.451 48.2542 106.314C48.2001 106.177 48.1878 106.027 48.2191 105.883C48.2503 105.739 48.3236 105.608 48.4297 105.505L81.9202 73.2337C81.9886 73.1577 82.0719 73.0966 82.165 73.0543C82.258 73.0119 82.3588 72.9892 82.4611 72.9876C82.5633 72.986 82.6648 73.0055 82.7591 73.0448C82.8535 73.0842 82.9387 73.1427 83.0095 73.2165C83.0802 73.2903 83.135 73.3779 83.1703 73.4739C83.2056 73.5698 83.2208 73.672 83.2148 73.7741C83.2089 73.8762 83.1819 73.9759 83.1356 74.0671C83.0893 74.1583 83.0248 74.2389 82.9459 74.304L49.4554 106.576C49.3141 106.708 49.1284 106.782 48.9351 106.784V106.784Z" fill="#323C6B"/>
    <path d="M63.9186 106.784C63.7701 106.785 63.6247 106.741 63.5012 106.659C63.3777 106.576 63.2817 106.458 63.2257 106.321C63.1697 106.183 63.1562 106.032 63.187 105.887C63.2178 105.741 63.2914 105.609 63.3984 105.506L80.8943 88.619C80.9634 88.5494 81.0456 88.4941 81.1362 88.4563C81.2267 88.4186 81.3239 88.3992 81.422 88.3992C81.5201 88.3992 81.6173 88.4186 81.7078 88.4563C81.7984 88.4941 81.8806 88.5494 81.9497 88.619C82.0189 88.6868 82.0739 88.7678 82.1115 88.8571C82.149 88.9465 82.1683 89.0424 82.1683 89.1393C82.1683 89.2362 82.149 89.3321 82.1115 89.4215C82.0739 89.5108 82.0189 89.5917 81.9497 89.6596L64.4092 106.576C64.2741 106.699 64.1011 106.772 63.9186 106.784V106.784Z" fill="#323C6B"/>
    <path d="M82.6187 71.5689C82.5226 71.5703 82.4271 71.5526 82.3378 71.5169C82.2485 71.4812 82.1671 71.4281 82.0985 71.3608L67.7241 57.5068C67.6539 57.4385 67.5977 57.357 67.5589 57.2669C67.5202 57.1769 67.4995 57.0802 67.4981 56.9822C67.4967 56.8841 67.5147 56.7868 67.5509 56.6958C67.5871 56.6047 67.6409 56.5216 67.7093 56.4514C67.7776 56.3811 67.8591 56.325 67.9491 56.2862C68.0391 56.2474 68.1359 56.2267 68.2339 56.2254C68.3319 56.224 68.4292 56.2419 68.5203 56.2781C68.6114 56.3144 68.6944 56.3682 68.7647 56.4365L83.139 70.3649C83.2082 70.4327 83.2632 70.5137 83.3007 70.603C83.3383 70.6923 83.3576 70.7883 83.3576 70.8852C83.3576 70.9821 83.3383 71.078 83.3007 71.1673C83.2632 71.2567 83.2082 71.3376 83.139 71.4054C82.9919 71.5226 82.8064 71.5809 82.6187 71.5689Z" fill="#323C6B"/>
    <path d="M81.7567 85.1406C81.5634 85.1387 81.3778 85.0645 81.2365 84.9325L52.7554 57.5068C52.6135 57.3688 52.5322 57.1801 52.5294 56.9822C52.5266 56.7842 52.6025 56.5933 52.7405 56.4514C52.8785 56.3094 53.0672 56.2281 53.2651 56.2254C53.4631 56.2226 53.654 56.2985 53.7959 56.4365L82.2324 83.8622C82.3385 83.9644 82.4118 84.0958 82.443 84.2397C82.4743 84.3837 82.462 84.5337 82.4079 84.6707C82.3537 84.8076 82.2601 84.9254 82.1389 85.0091C82.0176 85.0928 81.8743 85.1385 81.727 85.1406H81.7567Z" fill="#323C6B"/>
    <path d="M80.8351 98.6825C80.7409 98.6853 80.6472 98.6682 80.5601 98.6324C80.473 98.5965 80.3945 98.5427 80.3297 98.4744L37.8013 57.5068C37.6594 57.3688 37.5781 57.1801 37.5753 56.9822C37.5725 56.7842 37.6484 56.5933 37.7864 56.4514C37.9244 56.3094 38.1131 56.2281 38.311 56.2254C38.509 56.2226 38.6999 56.2985 38.8418 56.4365L54.6432 71.673L81.3999 97.4041C81.5069 97.5072 81.5805 97.6399 81.6113 97.7853C81.642 97.9306 81.6286 98.0818 81.5726 98.2194C81.5166 98.357 81.4206 98.4746 81.2971 98.5572C81.1736 98.6397 81.0282 98.6834 80.8797 98.6825H80.8351Z" fill="#323C6B"/>
    <path d="M74.3244 106.784C74.131 106.782 73.9454 106.708 73.8041 106.576L26.2365 60.7176C26.1497 60.6476 26.0794 60.5594 26.0306 60.4592C25.9818 60.359 25.9557 60.2493 25.9541 60.1378C25.9541 59.9407 26.0324 59.7517 26.1718 59.6123C26.3112 59.4729 26.5002 59.3946 26.6973 59.3946C26.8907 59.3964 27.0763 59.4707 27.2176 59.6027L74.7852 105.505C74.8913 105.608 74.9646 105.739 74.9958 105.883C75.027 106.027 75.0148 106.177 74.9607 106.314C74.9065 106.451 74.8129 106.569 74.6916 106.652C74.5704 106.736 74.4271 106.782 74.2798 106.784H74.3244Z" fill="#323C6B"/>
    <path d="M59.3411 106.784C59.1477 106.782 58.9621 106.708 58.8208 106.576L27.1735 76.0729C27.0947 76.0078 27.0301 75.9272 26.9838 75.836C26.9375 75.7448 26.9106 75.6451 26.9046 75.543C26.8986 75.4409 26.9138 75.3387 26.9491 75.2428C26.9845 75.1468 27.0392 75.0592 27.11 74.9854C27.1807 74.9116 27.2659 74.8531 27.3603 74.8138C27.4546 74.7744 27.5561 74.7549 27.6583 74.7565C27.7606 74.7581 27.8614 74.7808 27.9544 74.8232C28.0475 74.8655 28.1308 74.9266 28.1992 75.0027L59.8465 105.505C59.9526 105.608 60.0259 105.739 60.0571 105.883C60.0884 106.027 60.0761 106.177 60.022 106.314C59.9678 106.451 59.8742 106.569 59.753 106.652C59.6317 106.736 59.4884 106.782 59.3411 106.784V106.784Z" fill="#323C6B"/>
    <path d="M44.387 106.784C44.1942 106.779 44.0096 106.705 43.8668 106.576L28.2438 91.4581C28.1727 91.3913 28.116 91.3107 28.0773 91.2213C28.0385 91.1318 28.0186 91.0353 28.0186 90.9378C28.0186 90.8403 28.0385 90.7438 28.0773 90.6543C28.116 90.5649 28.1727 90.4843 28.2438 90.4175C28.3116 90.3483 28.3925 90.2933 28.4819 90.2558C28.5712 90.2182 28.6672 90.1989 28.7641 90.1989C28.861 90.1989 28.9569 90.2182 29.0462 90.2558C29.1356 90.2933 29.2165 90.3483 29.2843 90.4175L44.9073 105.505C45.0143 105.608 45.0879 105.741 45.1186 105.887C45.1494 106.032 45.1359 106.183 45.0799 106.321C45.0239 106.458 44.928 106.576 44.8045 106.658C44.681 106.741 44.5356 106.785 44.387 106.784V106.784Z" fill="#323C6B"/>
    <path d="M58.4931 4.95947L48.6377 23.2284L65.4796 24.5068L58.4931 4.95947Z" fill="#F9D51B"/>
    <path d="M63.4877 29.4864L49.8566 28.4459L48.6377 23.2283L65.4796 24.5067L63.4877 29.4864Z" fill="#F9D51B"/>
    <path d="M63.2945 43.504L63.4878 29.4864L49.8567 28.4459L47.7607 43.504H63.2945Z" fill="#9297AB"/>
    <path d="M62.0604 24.2541L62.0753 24.2243L56.501 8.64596L58.4929 4.95947L65.4794 24.5068L62.0604 24.2541Z" fill="#F7BE56"/>
    <path d="M62.0609 24.254L60.0839 29.204H60.0244V29.2189L63.4879 29.4865L65.4798 24.5067L62.0609 24.254Z" fill="#F7BE56"/>
    <path d="M63.4878 29.4866L63.2945 43.5042H47.7607L47.8053 43.2217H59.8905L60.0837 29.2339L63.4878 29.4866Z" fill="#84879C"/>
    <path d="M57.6609 16.7621C57.5639 16.7564 57.4689 16.7315 57.3817 16.6886C57.2944 16.6457 57.2166 16.5857 57.1529 16.5123C57.0892 16.4389 57.0408 16.3535 57.0106 16.261C56.9804 16.1686 56.969 16.0711 56.9771 15.9742L57.765 4.95935C57.7807 4.76223 57.8742 4.57945 58.0247 4.45122C58.1752 4.32298 58.3706 4.2598 58.5677 4.27557C58.7648 4.29134 58.9476 4.38477 59.0758 4.53531C59.2041 4.68584 59.2672 4.88115 59.2515 5.07827L58.419 16.1377C58.3902 16.3162 58.2973 16.478 58.1578 16.5929C58.0182 16.7079 57.8416 16.768 57.6609 16.7621V16.7621Z" fill="#323C6B"/>
    <path d="M57.468 20.7459C58.7733 20.7459 59.8315 19.6878 59.8315 18.3824C59.8315 17.0771 58.7733 16.0189 57.468 16.0189C56.1627 16.0189 55.1045 17.0771 55.1045 18.3824C55.1045 19.6878 56.1627 20.7459 57.468 20.7459Z" fill="#323C6B"/>
    <path d="M30.9487 43.5042L27.5298 14.6366C27.4459 13.8999 27.6566 13.1599 28.1161 12.5779C28.5755 11.996 29.2464 11.6192 29.9825 11.5298L38.6487 10.519C39.0119 10.4755 39.3801 10.5041 39.7322 10.6031C40.0843 10.7021 40.4134 10.8697 40.7006 11.0962C40.9879 11.3226 41.2276 11.6036 41.4061 11.9229C41.5845 12.2422 41.6982 12.5936 41.7406 12.9569L45.3379 43.5042H30.9487Z" fill="#FE7058"/>
    <path d="M45.3531 43.5042H42.0977L38.9166 16.4947C38.8308 15.7599 38.4572 15.0891 37.8776 14.6293C37.298 14.1695 36.5597 13.9583 35.8247 14.042L27.5747 15.0231V14.6366C27.4908 13.8999 27.7016 13.1599 28.161 12.5779C28.6205 11.996 29.2913 11.6192 30.0274 11.5298L38.649 10.519C39.0122 10.4755 39.3804 10.5041 39.7325 10.6031C40.0846 10.7021 40.4137 10.8697 40.701 11.0962C40.9882 11.3226 41.2279 11.6036 41.4064 11.9229C41.5848 12.2422 41.6985 12.5936 41.7409 12.9569L45.3531 43.5042Z" fill="#EA6453"/>
    <path d="M26.0584 38.1974C25.8761 38.1947 25.7011 38.125 25.5668 38.0017C25.4325 37.8783 25.3483 37.7099 25.33 37.5285L23.8436 24.7744C23.7596 24.0495 23.9656 23.3208 24.4167 22.7472C24.8678 22.1736 25.5274 21.8016 26.2517 21.7123L42.603 19.7947C42.7006 19.783 42.7996 19.7906 42.8942 19.8171C42.9889 19.8437 43.0774 19.8886 43.1547 19.9493C43.232 20.0101 43.2966 20.0854 43.3447 20.1711C43.3929 20.2568 43.4237 20.3512 43.4355 20.4488C43.4472 20.5464 43.4395 20.6453 43.413 20.74C43.3865 20.8346 43.3416 20.9231 43.2808 21.0004C43.2201 21.0777 43.1447 21.1423 43.059 21.1905C42.9733 21.2387 42.879 21.2695 42.7814 21.2812L26.43 23.2136C26.2656 23.232 26.1065 23.2829 25.9619 23.3633C25.8173 23.4438 25.6901 23.5522 25.5878 23.6822C25.4854 23.8122 25.4099 23.9612 25.3657 24.1207C25.3214 24.2801 25.3093 24.4468 25.33 24.6109L26.8165 37.3798C26.8374 37.5748 26.7804 37.7702 26.6579 37.9233C26.5354 38.0765 26.3573 38.175 26.1625 38.1974H26.0584Z" fill="#323C6B"/>
    <path d="M79.3337 43.504L83.9269 25.4729L71.9756 22.4256L66.6094 43.504H79.3337Z" fill="#00AB5F"/>
    <path d="M81.2518 24.7893L80.8356 24.6852L75.6924 43.5042H79.3343L83.9275 25.4731L81.2518 24.7893Z" fill="#00C56D"/>
    <path d="M72.9714 44.2473H72.793C72.6988 44.2248 72.6101 44.1836 72.532 44.1263C72.4539 44.0691 72.388 43.9968 72.3382 43.9137C72.2883 43.8307 72.2556 43.7385 72.2418 43.6427C72.228 43.5468 72.2335 43.4492 72.2579 43.3554L77.2971 23.7635C77.3464 23.5664 77.4719 23.3969 77.6462 23.2924C77.8204 23.1879 78.029 23.1568 78.2261 23.2061C78.4232 23.2554 78.5927 23.381 78.6973 23.5552C78.8018 23.7294 78.8328 23.938 78.7836 24.1352L73.6998 43.6825C73.6596 43.8448 73.5659 43.9889 73.4337 44.0914C73.3015 44.1939 73.1387 44.2489 72.9714 44.2473V44.2473Z" fill="#323C6B"/>
    <path d="M71.9756 22.4256L80.7756 12.8229L83.9418 25.4729L71.9756 22.4256Z" fill="#9297AB"/>
    <path d="M83.9421 26.2162H83.7488L71.857 23.1689C71.7325 23.1378 71.6182 23.075 71.5252 22.9866C71.4322 22.8983 71.3637 22.7873 71.3263 22.6646C71.2888 22.5419 71.2838 22.4116 71.3117 22.2864C71.3396 22.1611 71.3994 22.0452 71.4853 21.95L80.2705 12.3919C80.3617 12.2944 80.4776 12.2233 80.6058 12.186C80.7341 12.1488 80.87 12.1468 80.9993 12.1803C81.1286 12.2137 81.2465 12.2814 81.3406 12.3762C81.4347 12.471 81.5015 12.5894 81.534 12.7189L84.7299 25.2946C84.76 25.4179 84.7581 25.5468 84.7243 25.6691C84.6904 25.7914 84.6259 25.903 84.5367 25.9932C84.4608 26.0729 84.3679 26.1343 84.265 26.1729C84.162 26.2116 84.0516 26.2263 83.9421 26.2162V26.2162ZM73.3583 22.0095L82.9164 24.4473L80.3894 14.354L73.3583 22.0095Z" fill="#323C6B"/>
    <path d="M45.3529 44.2473H30.9488C30.7688 44.245 30.5957 44.1774 30.4618 44.0571C30.3278 43.9368 30.242 43.772 30.2205 43.5933L26.7569 14.7257C26.7011 14.2637 26.7373 13.7952 26.8635 13.3472C26.9897 12.8993 27.2034 12.4808 27.4922 12.1159C27.7811 11.751 28.1394 11.447 28.5464 11.2214C28.9535 10.9957 29.4012 10.853 29.8637 10.8014L38.6488 9.7757C39.5783 9.67071 40.5116 9.93648 41.2463 10.5153C41.981 11.0942 42.4577 11.9394 42.5732 12.8676L46.0813 43.4149C46.093 43.5186 46.0833 43.6236 46.0526 43.7234C46.0219 43.8231 45.9709 43.9155 45.9029 43.9946C45.8341 44.073 45.7495 44.136 45.6548 44.1795C45.56 44.223 45.4572 44.2461 45.3529 44.2473V44.2473ZM31.6178 42.7608H44.5948L41.0867 13.0311C41.0591 12.7638 40.9777 12.5048 40.8474 12.2698C40.7171 12.0348 40.5406 11.8286 40.3286 11.6635C39.9091 11.3298 39.375 11.1749 38.8421 11.2325L30.161 12.2581C29.8825 12.2765 29.6107 12.3511 29.3619 12.4774C29.113 12.6037 28.8923 12.7791 28.7132 12.9931C28.534 13.207 28.4 13.455 28.3192 13.7221C28.2385 13.9892 28.2127 14.27 28.2434 14.5473L31.6178 42.7608Z" fill="#323C6B"/>
    <path d="M65.4798 25.2499L48.6379 23.9715C48.5141 23.9631 48.3944 23.9232 48.2904 23.8555C48.1863 23.7879 48.1013 23.6948 48.0433 23.5851C47.9847 23.4753 47.9541 23.3527 47.9541 23.2283C47.9541 23.1039 47.9847 22.9813 48.0433 22.8715L57.8392 4.61748C57.9048 4.48821 58.0082 4.38198 58.1357 4.31293C58.2632 4.24389 58.4086 4.21531 58.5528 4.231C58.6957 4.24081 58.8327 4.29258 58.9464 4.37984C59.0601 4.4671 59.1455 4.58596 59.1919 4.72154L66.1784 24.2837C66.2228 24.3958 66.2386 24.5172 66.2245 24.637C66.2103 24.7568 66.1667 24.8711 66.0974 24.9699C66.0281 25.0686 65.9355 25.1486 65.8277 25.2027C65.7199 25.2567 65.6003 25.2832 65.4798 25.2796V25.2499ZM49.8271 22.5742L64.3946 23.6742L58.3595 6.78775L49.8271 22.5742Z" fill="#323C6B"/>
    <path d="M63.4881 30.2296L49.7976 29.1891C49.6387 29.177 49.4879 29.1141 49.3674 29.0097C49.247 28.9053 49.1633 28.765 49.1287 28.6094L47.9098 23.3918C47.8816 23.2811 47.8804 23.1653 47.9062 23.0541C47.9321 22.9429 47.9843 22.8395 48.0584 22.7526C48.1345 22.6625 48.2305 22.5914 48.3389 22.545C48.4473 22.4986 48.565 22.478 48.6827 22.4851L65.5395 23.7634C65.6566 23.7758 65.7695 23.8142 65.8699 23.876C65.9702 23.9377 66.0554 24.0212 66.1192 24.1202C66.1704 24.2243 66.197 24.3387 66.197 24.4546C66.197 24.5706 66.1704 24.685 66.1192 24.7891L64.1273 29.754C64.0769 29.8858 63.99 30.0005 63.8769 30.0847C63.7637 30.1689 63.6288 30.2192 63.4881 30.2296ZM50.4517 27.7472L62.9976 28.6986L64.4098 25.1756L49.5449 24.0459L50.4517 27.7472Z" fill="#323C6B"/>
    <path d="M63.2948 44.2473H47.761C47.6542 44.2482 47.5485 44.2261 47.451 44.1825C47.3536 44.1389 47.2666 44.0748 47.1961 43.9946C47.1277 43.9127 47.0766 43.8178 47.0459 43.7156C47.0153 43.6134 47.0057 43.506 47.0178 43.4L49.0543 28.3419C49.0836 28.1541 49.1824 27.9842 49.331 27.8659C49.4797 27.7475 49.6674 27.6893 49.857 27.7027L63.488 28.7433C63.6773 28.7584 63.8535 28.8454 63.9807 28.9863C64.1078 29.1273 64.1762 29.3116 64.1718 29.5014L63.9786 43.5189C63.9722 43.7026 63.8994 43.8777 63.7736 44.0117C63.6479 44.1457 63.4777 44.2294 63.2948 44.2473V44.2473ZM48.6083 42.7608H62.5515L62.7299 30.2297L50.5407 29.2487L48.6083 42.7608Z" fill="#323C6B"/>
    <path d="M79.3334 44.2474H66.6091C66.4973 44.248 66.3868 44.2228 66.2863 44.1738C66.1857 44.1249 66.0978 44.0534 66.0293 43.965C65.9608 43.8751 65.9132 43.7711 65.8901 43.6605C65.867 43.5499 65.8688 43.4356 65.8956 43.3258L71.2469 22.2325C71.3009 22.0463 71.4229 21.8871 71.5888 21.7866C71.6724 21.7352 71.7654 21.7008 71.8623 21.6855C71.9593 21.6702 72.0583 21.6742 72.1537 21.6974L84.0456 24.6704C84.2376 24.7196 84.4027 24.8421 84.5055 25.0116C84.6083 25.1811 84.6406 25.3841 84.5956 25.5771L80.0618 43.6825C80.0193 43.8436 79.925 43.9863 79.7933 44.0884C79.6616 44.1905 79.5 44.2464 79.3334 44.2474V44.2474ZM67.5753 42.7609H78.7834L83.0496 26.0082L72.5402 23.3325L67.5753 42.7609Z" fill="#323C6B"/>
    <path d="M74.7556 106.784H35.2448C33.5534 106.784 31.9254 106.14 30.6914 104.983C29.4573 103.826 28.7097 102.243 28.6002 100.555L25.7164 56.9866C25.7083 56.8897 25.7197 56.7922 25.7499 56.6997C25.7801 56.6073 25.8284 56.5219 25.8922 56.4485C25.9559 56.375 26.0337 56.3151 26.1209 56.2722C26.2082 56.2293 26.3031 56.2043 26.4002 56.1987C26.5966 56.1862 26.7901 56.2506 26.9399 56.3782C27.0897 56.5058 27.184 56.6867 27.2029 56.8825L30.0867 100.437C30.1734 101.746 30.7544 102.973 31.7121 103.87C32.6698 104.767 33.9326 105.267 35.2448 105.268H74.7556C76.0667 105.263 77.3276 104.763 78.2845 103.866C79.2415 102.97 79.8235 101.745 79.9137 100.437L82.7975 56.9866C82.8164 56.7907 82.9107 56.6099 83.0605 56.4823C83.2103 56.3547 83.4038 56.2903 83.6002 56.3028C83.6973 56.3084 83.7922 56.3334 83.8795 56.3763C83.9667 56.4192 84.0445 56.4791 84.1082 56.5525C84.1719 56.6259 84.2203 56.7114 84.2505 56.8038C84.2807 56.8962 84.2921 56.9937 84.284 57.0906L81.4002 100.555C81.2838 102.241 80.5341 103.82 79.3015 104.975C78.069 106.13 76.4449 106.777 74.7556 106.784Z" fill="#323C6B"/>
    <path d="M84.9523 57.7149H25.0469C24.5615 57.7149 24.0809 57.619 23.6327 57.4329C23.1844 57.2467 22.7774 56.9738 22.4349 56.6299C22.0923 56.286 21.8211 55.8778 21.6367 55.4289C21.4523 54.9799 21.3584 54.4989 21.3604 54.0135V46.4325C21.3604 45.9483 21.4557 45.469 21.641 45.0217C21.8263 44.5744 22.0978 44.168 22.4401 43.8257C22.7825 43.4834 23.1888 43.2119 23.6361 43.0266C24.0834 42.8413 24.5628 42.746 25.0469 42.746H84.9523C85.93 42.746 86.8677 43.1344 87.559 43.8257C88.2504 44.5171 88.6388 45.4547 88.6388 46.4325V54.0135C88.6407 54.4989 88.5468 54.9799 88.3624 55.4289C88.178 55.8778 87.9068 56.286 87.5643 56.6299C87.2218 56.9738 86.8147 57.2467 86.3665 57.4329C85.9182 57.619 85.4376 57.7149 84.9523 57.7149V57.7149ZM25.0469 44.2473C24.4634 44.2473 23.9038 44.4791 23.4912 44.8917C23.0787 45.3043 22.8469 45.8638 22.8469 46.4473V54.0135C22.8469 54.597 23.0787 55.1566 23.4912 55.5692C23.9038 55.9817 24.4634 56.2135 25.0469 56.2135H84.9523C85.5357 56.2135 86.0953 55.9817 86.5079 55.5692C86.9205 55.1566 87.1523 54.597 87.1523 54.0135V46.4325C87.1523 45.849 86.9205 45.2894 86.5079 44.8768C86.0953 44.4642 85.5357 44.2325 84.9523 44.2325L25.0469 44.2473Z" fill="#323C6B"/>
    <path d="M80.5675 109.445C80.4046 109.454 80.2432 109.409 80.1091 109.316C79.975 109.223 79.8761 109.088 79.8281 108.932C79.7801 108.776 79.7859 108.608 79.8445 108.456C79.9031 108.304 80.0111 108.176 80.1512 108.092C81.3695 107.272 82.3836 106.184 83.1155 104.911C83.8473 103.638 84.2775 102.214 84.3729 100.749L84.5512 97.9987C84.5701 97.8056 84.6623 97.627 84.8089 97.4998C84.9554 97.3726 85.1452 97.3064 85.3391 97.3149C85.4374 97.3186 85.534 97.3422 85.623 97.3842C85.712 97.4263 85.7915 97.4859 85.8568 97.5595C85.9221 97.6332 85.9718 97.7193 86.0029 97.8126C86.034 97.906 86.0458 98.0047 86.0377 98.1028L85.8445 100.853C85.7382 102.543 85.2446 104.187 84.4017 105.656C83.5589 107.125 82.3894 108.381 80.9837 109.326C80.8598 109.406 80.7149 109.447 80.5675 109.445V109.445Z" fill="#323C6B"/>
    <path d="M85.5174 95.3527C85.4198 95.347 85.3242 95.3221 85.2362 95.2794C85.1482 95.2367 85.0694 95.177 85.0045 95.1038C84.9396 95.0306 84.8898 94.9453 84.8579 94.8528C84.8261 94.7603 84.8128 94.6625 84.8188 94.5648V93.5392C84.8442 93.3487 84.9382 93.1741 85.0833 93.0482C85.2284 92.9223 85.4145 92.8537 85.6066 92.8554C85.8025 92.8706 85.9847 92.9612 86.1151 93.1082C86.2454 93.2552 86.3136 93.447 86.3053 93.6432V94.6689C86.2901 94.8635 86.1989 95.0443 86.0515 95.1722C85.9041 95.3002 85.7122 95.365 85.5174 95.3527V95.3527Z" fill="#323C6B"/>
    <path d="M17.6446 54.7716C17.4475 54.7716 17.2584 54.6933 17.1191 54.554C16.9797 54.4146 16.9014 54.2255 16.9014 54.0284V53.3743C16.9014 53.1772 16.9797 52.9882 17.1191 52.8488C17.2584 52.7094 17.4475 52.6311 17.6446 52.6311C17.8417 52.6311 18.0308 52.7094 18.1702 52.8488C18.3096 52.9882 18.3879 53.1772 18.3879 53.3743V54.0135C18.3879 54.212 18.3101 54.4027 18.1711 54.5444C18.0321 54.6862 17.8431 54.7677 17.6446 54.7716Z" fill="#323C6B"/>
    <path d="M17.6446 50.6095C17.4475 50.6095 17.2584 50.5312 17.1191 50.3918C16.9797 50.2524 16.9014 50.0633 16.9014 49.8662V46.4473C16.907 45.0199 17.2876 43.6191 18.005 42.3851C18.7225 41.1511 19.7515 40.1273 20.9892 39.4162C21.1612 39.318 21.3649 39.291 21.5566 39.341C21.7483 39.391 21.9128 39.514 22.0149 39.6838C22.1112 39.8554 22.1355 40.0581 22.0826 40.2476C22.0296 40.437 21.9037 40.5978 21.7324 40.6946C20.7215 41.2783 19.8808 42.1164 19.2941 43.1256C18.7073 44.1348 18.3949 45.28 18.3879 46.4473V49.8662C18.384 50.0622 18.3045 50.249 18.166 50.3876C18.0274 50.5261 17.8405 50.6057 17.6446 50.6095V50.6095Z" fill="#323C6B"/>
    <path d="M38.3065 53.1514H37.6078C37.4634 53.1514 37.3203 53.1229 37.1869 53.0676C37.0534 53.0123 36.9321 52.9313 36.83 52.8292C36.7279 52.727 36.6468 52.6058 36.5915 52.4723C36.5363 52.3388 36.5078 52.1958 36.5078 52.0514C36.5078 51.9069 36.5363 51.7639 36.5915 51.6304C36.6468 51.4969 36.7279 51.3757 36.83 51.2735C36.9321 51.1714 37.0534 51.0904 37.1869 51.0351C37.3203 50.9798 37.4634 50.9514 37.6078 50.9514H38.3065C38.4509 50.9514 38.594 50.9798 38.7274 51.0351C38.8609 51.0904 38.9821 51.1714 39.0843 51.2735C39.1864 51.3757 39.2674 51.4969 39.3227 51.6304C39.378 51.7639 39.4065 51.9069 39.4065 52.0514C39.4065 52.1958 39.378 52.3388 39.3227 52.4723C39.2674 52.6058 39.1864 52.727 39.0843 52.8292C38.9821 52.9313 38.8609 53.0123 38.7274 53.0676C38.594 53.1229 38.4509 53.1514 38.3065 53.1514V53.1514Z" fill="white"/>
    <path d="M56.9621 53.1514H42.6918C42.5473 53.1514 42.4043 53.1229 42.2708 53.0676C42.1374 53.0123 42.0161 52.9313 41.914 52.8292C41.8118 52.727 41.7308 52.6058 41.6755 52.4723C41.6203 52.3388 41.5918 52.1958 41.5918 52.0514C41.5918 51.9069 41.6203 51.7639 41.6755 51.6304C41.7308 51.4969 41.8118 51.3757 41.914 51.2735C42.0161 51.1714 42.1374 51.0904 42.2708 51.0351C42.4043 50.9798 42.5473 50.9514 42.6918 50.9514H56.9621C57.2538 50.9514 57.5336 51.0673 57.7399 51.2735C57.9462 51.4798 58.0621 51.7596 58.0621 52.0514C58.0621 52.3431 57.9462 52.6229 57.7399 52.8292C57.5336 53.0355 57.2538 53.1514 56.9621 53.1514V53.1514Z" fill="white"/>
</svg>
