<svg width="111" height="111" viewBox="0 0 111 111" fill="none" xmlns="http://www.w3.org/2000/svg">
    <path d="M33.334 30.2917C33.334 25.0242 35.6518 19.9724 39.7776 16.2477C43.9034 12.523 49.4992 10.4305 55.334 10.4305C61.1687 10.4305 66.7645 12.523 70.8903 16.2477C75.0161 19.9724 77.334 25.0242 77.334 30.2917C77.334 35.5591 75.0161 40.6109 70.8903 44.3356C66.7645 48.0603 61.1687 50.1528 55.334 50.1528C49.4992 50.1528 43.9034 48.0603 39.7776 44.3356C35.6518 40.6109 33.334 35.5591 33.334 30.2917ZM55.334 15.3958C50.9579 15.3958 46.7611 16.9652 43.6667 19.7587C40.5724 22.5522 38.834 26.341 38.834 30.2917C38.834 34.2423 40.5724 38.0311 43.6667 40.8246C46.7611 43.6181 50.9579 45.1875 55.334 45.1875C59.7101 45.1875 63.9069 43.6181 67.0012 40.8246C70.0956 38.0311 71.834 34.2423 71.834 30.2917C71.834 26.341 70.0956 22.5522 67.0012 19.7587C63.9069 16.9652 59.7101 15.3958 55.334 15.3958ZM16.834 65.0486C16.834 59.5222 21.8005 55.118 27.8835 55.118H63.7765C62.7795 56.6729 62.0227 58.3434 61.527 60.0833H27.8835C24.798 60.0833 22.334 62.3028 22.334 65.0486C22.334 71.5482 25.755 76.3893 31.5355 79.7111C37.4205 83.1024 45.7915 84.9097 55.334 84.9097C60.339 84.9097 65.0305 84.4132 69.1995 83.4499L70.283 88.3258C65.641 89.3685 60.581 89.875 55.334 89.875C45.1315 89.875 35.6275 87.9584 28.5765 83.9018C21.4155 79.7806 16.834 73.4399 16.834 65.0486Z" fill="black"/>
    <path fill-rule="evenodd" clip-rule="evenodd" d="M54.4883 70.0092C54.4865 73.6306 55.5414 77.1885 57.5467 80.3249C59.552 83.4614 62.437 86.0656 65.9114 87.8756V88.0561C65.9114 90.7911 67.1149 93.4142 69.2571 95.3481C71.3993 97.2821 74.3048 98.3686 77.3344 98.3686C80.364 98.3686 83.2695 97.2821 85.4118 95.3481C87.554 93.4142 88.7575 90.7911 88.7575 88.0561V87.8756C92.2304 86.0655 95.1143 83.462 97.1195 80.3269C99.1246 77.1917 100.18 73.6353 100.181 70.015C100.181 66.3948 99.1255 62.8382 97.1207 59.7029C95.116 56.5675 92.2324 53.9637 88.7597 52.1532C85.2871 50.3428 81.3478 49.3894 77.3376 49.3889C73.3275 49.3883 69.3879 50.3407 65.9147 52.1503C62.4415 53.9599 59.5571 56.563 57.5513 59.6978C55.5456 62.8327 54.4892 66.389 54.4883 70.0092Z" fill="#F9D51B"/>
    <path fill-rule="evenodd" clip-rule="evenodd" d="M54.4883 70.0092C54.4865 73.6306 55.5414 77.1885 57.5467 80.3249C59.552 83.4614 62.437 86.0656 65.9114 87.8756V88.0561C65.9114 90.7911 67.1149 93.4142 69.2571 95.3481C71.3993 97.2821 74.3049 98.3686 77.3344 98.3686C80.364 98.3686 83.2695 97.2821 85.4118 95.3481C87.554 93.4142 88.7575 90.7911 88.7575 88.0561V87.8756C92.2304 86.0655 95.1143 83.462 97.1195 80.3269C99.1246 77.1917 100.18 73.6353 100.181 70.015C100.181 66.3948 99.1255 62.8382 97.1208 59.7029C95.116 56.5675 92.2324 53.9637 88.7597 52.1532C85.2871 50.3428 81.3478 49.3894 77.3376 49.3889C73.3275 49.3883 69.3879 50.3407 65.9147 52.1503C62.4415 53.9599 59.5571 56.563 57.5513 59.6978C55.5456 62.8327 54.4892 66.389 54.4883 70.0092ZM88.7575 81.5386C91.344 79.4501 93.1672 76.7017 93.9856 73.6573C94.8041 70.6129 94.5794 67.4159 93.3411 64.4893C92.1029 61.5627 89.9095 59.0445 87.0513 57.2679C84.193 55.4913 80.8046 54.5401 77.3344 54.5401C73.8643 54.5401 70.4758 55.4913 67.6176 57.2679C64.7594 59.0445 62.566 61.5627 61.3278 64.4893C60.0895 67.4159 59.8648 70.6129 60.6832 73.6573C61.5017 76.7017 63.3248 79.4501 65.9114 81.5386H71.6229V88.0561C71.6229 89.4236 72.2247 90.7351 73.2958 91.7021C74.3669 92.6691 75.8196 93.2123 77.3344 93.2123C78.8492 93.2123 80.302 92.6691 81.3731 91.7021C82.4442 90.7351 83.046 89.4236 83.046 88.0561V81.5334L88.7575 81.536V81.5386Z" fill="black"/>
    <path d="M71.624 100.962V100.947C73.3032 101.823 75.2537 102.326 77.3356 102.326C79.4174 102.326 81.3679 101.823 83.0471 100.947V100.962C83.0471 102.33 82.4454 103.641 81.3742 104.608C80.3031 105.575 78.8504 106.119 77.3356 106.119C75.8208 106.119 74.368 105.575 73.2969 104.608C72.2258 103.641 71.624 102.33 71.624 100.962Z" fill="black"/>
</svg>
